<?xml version="1.0" standalone="no"?>
<!DOCTYPE svg PUBLIC "-//W3C//DTD SVG 20010904//EN"
 "http://www.w3.org/TR/2001/REC-SVG-20010904/DTD/svg10.dtd">
<svg version="1.0" xmlns="http://www.w3.org/2000/svg"
 width="2000.000000pt" height="2000.000000pt" viewBox="0 0 2000.000000 2000.000000"
 preserveAspectRatio="xMidYMid meet">
<metadata>
Created by potrace 1.14, written by Peter Selinger 2001-2017
</metadata>
<g transform="translate(0.000000,2000.000000) scale(0.100000,-0.100000)"
fill="#000000" stroke="none">
<path d="M2791 18857 c-87 -209 -177 -404 -355 -767 -71 -147 -81 -260 -33
-390 78 -214 313 -341 536 -289 158 36 299 175 340 334 15 56 13 182 -3 235
-8 25 -60 140 -118 255 -57 116 -120 246 -140 290 -77 170 -130 290 -155 351
-14 35 -28 64 -32 64 -3 0 -21 -37 -40 -83z"/>
<path d="M1482 18228 c-23 -53 -23 -69 2 -49 32 27 86 -22 70 -63 -14 -37 -94
-36 -94 1 0 24 -16 13 -33 -22 -22 -47 -21 -55 6 -55 50 0 65 -58 22 -86 -23
-15 -27 -15 -51 1 -14 9 -27 15 -29 13 -1 -2 -8 -14 -15 -27 -11 -22 -10 -26
14 -44 30 -22 34 -57 8 -80 -21 -20 -43 -22 -59 -6 -8 8 -16 4 -29 -15 -16
-26 -16 -28 3 -41 47 -33 21 -104 -33 -91 -19 5 -27 1 -36 -19 -8 -18 -8 -29
-2 -33 39 -26 13 -92 -35 -92 -34 0 -45 -26 -28 -69 14 -38 4 -60 -32 -67 -34
-7 -46 -29 -46 -89 0 -33 -4 -42 -27 -53 -34 -16 -49 -42 -46 -81 2 -30 -16
-61 -36 -61 -17 0 -47 -66 -40 -85 4 -9 -6 -33 -21 -55 -25 -36 -28 -51 -33
-149 -4 -102 -3 -110 15 -120 27 -14 34 -45 17 -70 -13 -18 -12 -27 7 -73 12
-29 30 -60 39 -69 10 -8 21 -26 25 -40 4 -13 15 -34 23 -47 13 -21 16 -21 32
-7 20 18 61 20 78 3 17 -17 15 -48 -5 -71 -17 -18 -17 -20 12 -43 30 -24 62
-33 50 -13 -13 20 4 57 30 61 62 12 89 -63 31 -91 l-28 -13 42 -19 c53 -24 60
-24 60 1 0 26 43 54 69 45 25 -8 38 -51 23 -75 -9 -15 -7 -19 15 -23 14 -2 38
3 54 12 26 15 31 15 63 -3 27 -14 45 -17 85 -11 47 6 51 9 51 35 0 49 50 71
84 37 l24 -24 45 23 c25 13 55 37 67 54 12 16 29 30 39 30 32 0 51 32 44 73
-8 49 10 71 52 64 25 -4 33 -1 41 16 7 17 5 26 -8 40 -35 34 -12 87 38 87 28
0 47 35 33 62 -13 25 -11 49 6 68 14 16 19 55 16 117 -1 19 -5 22 -31 17 -37
-8 -60 9 -60 46 0 33 22 54 50 47 25 -6 26 8 3 65 -23 60 -31 70 -53 58 -25
-14 -50 -2 -61 28 -8 21 -6 32 11 54 l20 28 -24 48 c-14 27 -36 57 -51 66 -20
13 -25 24 -24 49 2 21 -15 70 -51 145 -52 109 -62 123 -75 102 -12 -19 -54
-10 -71 15 -15 23 -15 27 0 50 9 14 23 25 31 25 20 0 18 16 -8 70 -17 35 -29
46 -52 50 -39 7 -57 50 -32 78 16 18 16 22 -8 74 -14 30 -34 63 -45 73 -11 10
-20 31 -20 46 0 28 -77 219 -89 219 -3 0 -16 -24 -29 -52z m116 -274 c12 -8
22 -26 22 -38 0 -54 -77 -64 -95 -12 -8 24 -6 31 14 47 28 23 31 23 59 3z
m-76 -141 c24 -22 23 -58 -3 -77 -28 -19 -61 -7 -74 29 -8 23 -6 30 14 46 29
23 39 24 63 2z m147 -77 c16 -19 10 -66 -10 -79 -26 -17 -66 -1 -72 29 -9 47
53 85 82 50z m-209 -82 c4 -10 4 -29 -1 -41 -7 -18 -16 -23 -44 -23 -29 0 -37
5 -45 25 -12 31 -3 54 24 65 27 10 58 -2 66 -26z m130 -64 c24 -24 25 -43 4
-64 -18 -19 -55 -21 -72 -4 -18 18 -15 65 6 77 25 15 40 13 62 -9z m-220 -58
c29 -24 21 -67 -16 -84 -50 -23 -88 32 -53 76 24 31 39 32 69 8z m362 -19 c22
-20 23 -41 1 -65 -32 -36 -83 -17 -83 32 0 48 45 67 82 33z m-224 -59 c41 -29
23 -84 -28 -84 -48 0 -67 45 -33 82 20 22 32 23 61 2z m366 -20 c23 -23 19
-51 -9 -70 -36 -24 -75 -6 -75 34 0 15 5 33 12 40 17 17 54 15 72 -4z m-576
-46 c20 -20 14 -56 -13 -74 -23 -15 -27 -15 -50 0 -44 29 -28 86 25 86 14 0
31 -5 38 -12z m357 -18 c15 -16 17 -26 9 -48 -18 -51 -94 -37 -94 18 0 48 52
66 85 30z m-227 -56 c41 -29 23 -84 -28 -84 -32 0 -50 17 -50 46 0 20 32 54
50 54 3 0 16 -7 28 -16z m372 -23 c17 -34 12 -61 -16 -73 -45 -21 -87 21 -66
66 15 33 66 37 82 7z m-574 -56 c15 -23 15 -27 0 -50 -9 -14 -26 -25 -38 -25
-45 0 -76 58 -46 88 21 21 66 14 84 -13z m346 3 c37 -31 20 -88 -27 -88 -51 0
-73 56 -33 84 27 19 39 20 60 4z m362 -14 c31 -31 10 -94 -31 -94 -25 0 -53
30 -53 56 0 23 33 54 57 54 6 0 19 -7 27 -16z m-582 -46 c46 -35 10 -110 -43
-93 -41 13 -44 79 -5 95 29 12 30 12 48 -2z m366 -20 c7 -7 12 -24 12 -38 0
-49 -51 -68 -84 -31 -38 42 31 110 72 69z m-572 -59 c17 -19 17 -23 3 -47 -21
-38 -62 -41 -85 -8 -15 24 -15 28 0 51 20 31 56 33 82 4z m338 5 c42 -16 40
-71 -4 -94 -16 -9 -25 -6 -45 14 -30 30 -31 40 -5 66 21 21 29 23 54 14z m379
-35 c16 -22 12 -52 -9 -70 -20 -17 -63 -2 -76 26 -23 50 54 90 85 44z m-573
-49 c21 -40 -16 -88 -57 -73 -33 12 -45 57 -21 81 20 20 66 15 78 -8z m356
-15 c15 -23 15 -27 0 -50 -30 -45 -86 -28 -86 27 0 49 59 65 86 23z m355 -6
c11 -11 18 -27 15 -36 -3 -8 -6 -18 -6 -21 0 -18 -40 -31 -65 -22 -20 8 -25
16 -25 45 0 28 5 38 23 45 32 13 35 12 58 -11z m-936 -39 c24 -27 13 -68 -22
-76 -32 -8 -57 6 -61 34 -8 54 47 82 83 42z m356 -9 c20 -16 22 -23 14 -47
-11 -32 -55 -45 -81 -23 -23 19 -18 68 9 79 31 12 32 12 58 -9z m370 -27 c7
-20 6 -32 -6 -50 -26 -41 -85 -24 -85 24 0 36 17 52 52 52 22 0 31 -6 39 -26z
m-583 -36 c27 -27 0 -88 -39 -88 -40 0 -65 60 -37 88 7 7 24 12 38 12 14 0 31
-5 38 -12z m357 -18 c24 -27 13 -68 -22 -76 -34 -9 -57 6 -61 42 -6 49 49 72
83 34z m355 -10 c11 -11 20 -27 20 -35 0 -18 -35 -55 -52 -55 -20 0 -48 32
-48 56 0 21 32 54 52 54 5 0 17 -9 28 -20z m-935 -36 c25 -25 15 -67 -18 -78
-35 -13 -61 2 -65 36 -4 29 21 58 48 58 10 0 26 -7 35 -16z m353 -10 c30 -21
29 -59 -3 -80 -23 -15 -27 -15 -50 0 -29 19 -32 51 -8 78 20 22 32 23 61 2z
m366 -20 c21 -20 20 -43 -1 -66 -20 -22 -41 -23 -65 -1 -21 18 -24 53 -6 71
17 17 54 15 72 -4z m361 -14 c15 -16 17 -26 9 -48 -17 -50 -94 -39 -94 14 0
49 52 70 85 34z m-932 -41 c31 -50 -38 -105 -75 -59 -22 27 -23 44 -2 65 20
19 63 16 77 -6z m351 -5 c19 -18 21 -55 4 -72 -31 -31 -88 -4 -88 42 0 20 28
46 50 46 10 0 26 -7 34 -16z m366 -18 c18 -23 8 -59 -22 -75 -24 -14 -28 -14
-47 3 -23 21 -27 56 -9 74 17 17 63 15 78 -2z m-592 -42 c49 -34 -3 -113 -53
-80 -29 19 -31 61 -3 80 12 9 25 16 28 16 3 0 16 -7 28 -16z m364 -16 c26 -22
29 -47 8 -68 -24 -24 -53 -26 -74 -4 -44 44 17 111 66 72z m370 -21 c12 -19 9
-54 -6 -66 -46 -39 -111 25 -71 69 20 22 62 20 77 -3z m-934 -61 c7 -55 -53
-78 -84 -31 -19 29 -12 58 19 73 30 14 61 -7 65 -42z m346 21 c22 -16 18 -65
-5 -80 -23 -14 -67 0 -74 24 -8 25 19 69 43 69 10 0 26 -6 36 -13z m354 -13
c56 -39 4 -118 -53 -80 -30 20 -32 49 -5 76 24 24 29 24 58 4z m-568 -54 c11
-11 20 -27 20 -35 0 -19 -36 -55 -55 -55 -18 0 -55 35 -55 53 0 25 32 53 63
56 4 1 16 -8 27 -19z m367 -26 c20 -31 10 -54 -30 -68 -21 -8 -31 -6 -47 9
-24 22 -25 42 -3 67 23 26 59 23 80 -8z m354 -5 c29 -29 16 -70 -28 -83 -15
-5 -28 -1 -42 13 -26 26 -26 46 -1 71 25 25 45 25 71 -1z m-580 -50 c11 -11
18 -27 15 -36 -3 -8 -6 -19 -6 -23 0 -5 -9 -14 -21 -20 -48 -26 -99 62 -51 89
26 15 40 13 63 -10z m363 -18 c22 -24 13 -58 -19 -73 -46 -21 -88 29 -58 71
18 26 55 27 77 2z m-222 -58 c35 -31 12 -83 -37 -83 -28 0 -56 35 -48 59 14
40 55 52 85 24z m368 -23 c15 -28 3 -59 -27 -71 -48 -18 -86 29 -56 70 19 28
68 28 83 1z m-216 -73 c8 -23 6 -31 -12 -49 -30 -30 -75 -16 -80 25 -5 38 15
59 52 55 23 -2 33 -10 40 -31z"/>
<path d="M10603 18260 c-58 -35 -63 -57 -63 -275 l0 -195 -122 0 c-144 -1
-258 -19 -325 -52 -108 -53 -204 -186 -219 -304 l-6 -54 -97 0 -96 0 405 -405
c291 -291 411 -405 429 -407 l26 -3 3 -287 2 -288 -457 0 c-496 0 -573 -6
-720 -55 -311 -105 -582 -370 -689 -676 -57 -164 -57 -156 -61 -924 -3 -492
-1 -740 7 -809 20 -175 79 -335 177 -483 55 -84 196 -227 286 -291 56 -39 94
-76 134 -131 133 -181 323 -328 523 -403 14 -5 -61 77 -170 187 -107 109 -186
194 -175 191 11 -3 51 -12 89 -20 l69 -14 199 -199 198 -198 153 -3 152 -3
-195 195 -195 196 80 0 80 0 195 -195 195 -195 150 0 150 0 -195 195 -195 195
70 0 70 0 195 -195 195 -195 150 0 150 0 -195 195 -195 195 70 0 70 0 195
-195 195 -195 150 0 150 0 -195 195 -195 195 80 0 80 0 195 -195 195 -195 150
0 150 0 -195 195 -195 195 70 0 70 0 195 -195 195 -195 82 0 c78 0 84 2 118
32 l36 31 -202 203 c-111 111 -199 206 -195 212 3 6 7 35 7 66 1 31 4 56 8 56
3 0 92 -87 198 -192 l193 -193 0 150 0 149 -199 201 -199 200 0 63 c0 34 3 62
7 62 3 0 92 -87 198 -192 l193 -193 0 150 0 149 -199 201 -199 200 0 73 c0 39
3 72 6 72 4 0 93 -87 199 -192 l193 -193 0 150 0 150 -197 197 -197 197 -2 65
c-2 36 0 66 4 66 4 0 93 -87 199 -192 l193 -193 0 150 0 149 -199 201 -200
200 1 65 c0 36 3 69 6 74 2 4 92 -79 198 -185 l194 -194 0 150 0 150 -197 197
-197 197 -2 65 c-2 36 0 66 4 66 4 0 93 -87 199 -192 l193 -193 0 73 0 72 70
0 c39 0 70 3 70 8 0 4 -83 90 -185 192 -102 102 -185 188 -185 191 0 4 30 7
68 7 l67 0 201 -199 201 -199 146 0 c81 0 147 3 147 6 0 3 -83 89 -185 190
-102 101 -185 188 -185 194 0 5 28 8 63 6 l64 -2 197 -197 198 -197 79 0 80 0
-3 -562 -3 -563 -24 -49 c-32 -64 -114 -146 -177 -176 -45 -22 -65 -25 -239
-30 -295 -8 -280 14 -280 -415 0 -436 -21 -408 315 -413 l227 -3 194 -195 194
-194 150 0 150 0 -195 195 -195 195 70 0 70 0 195 -195 195 -195 142 0 c79 0
143 3 143 8 0 4 -85 93 -190 197 -122 121 -185 192 -177 196 6 4 36 10 66 14
l54 7 197 -197 197 -197 44 12 c42 11 159 57 169 66 2 3 -85 94 -195 204
l-198 199 47 22 47 23 197 -197 198 -198 60 45 c32 24 70 54 84 65 l25 20
-200 201 -200 200 38 37 37 38 198 -198 199 -198 30 34 c41 47 93 123 93 137
0 6 -88 99 -195 206 -212 213 -201 195 -158 261 14 22 20 17 211 -174 l196
-196 22 48 c13 27 31 77 40 112 l17 64 -198 199 -198 198 7 56 c4 31 10 56 14
56 4 0 93 -87 199 -192 l193 -193 0 150 0 150 -195 195 -195 195 0 75 0 75
195 -195 195 -195 0 150 0 149 -195 196 -195 196 0 69 0 70 195 -195 195 -195
0 152 0 151 -195 196 -195 195 0 78 0 78 196 -195 196 -195 -6 95 c-3 52 -15
131 -26 175 l-20 79 -203 206 c-174 176 -205 212 -219 255 -23 67 -104 200
-173 285 -128 157 -307 281 -498 345 -157 52 -204 55 -964 55 l-703 0 0 132 0
131 -199 201 -199 201 0 68 c0 37 3 67 7 67 3 0 89 -83 191 -185 102 -102 188
-185 192 -185 5 0 8 34 8 75 l0 75 67 0 68 0 -195 195 -195 195 70 0 70 0 195
-195 195 -195 152 0 153 0 -196 195 -196 195 79 0 78 0 195 -195 195 -195 150
0 150 0 -200 200 c-115 115 -193 200 -183 200 9 0 30 11 45 24 l28 25 197
-197 c160 -159 200 -194 210 -184 9 9 14 54 17 134 l3 120 -201 202 -201 202
0 202 0 201 -31 35 c-17 20 -47 40 -67 46 -22 6 -168 10 -348 10 l-311 0 -13
25 c-15 28 -43 49 -77 57 -32 8 -29 0 14 -44 l37 -38 -70 0 c-69 0 -70 0 -114
45 -41 41 -47 44 -104 47 l-61 3 -5 163 -5 164 -37 34 -38 34 -662 0 c-640 0
-664 -1 -695 -20z m-63 -1370 c0 -38 -1 -70 -3 -70 -1 0 -34 32 -72 70 l-69
70 72 0 72 0 0 -70z m1850 -892 c0 -5 -28 -8 -63 -8 l-63 0 -111 113 -111 112
0 55 c1 30 3 59 6 64 5 8 342 -323 342 -336z m-1850 -912 l0 -70 -65 64 -66
65 28 6 c15 4 45 6 66 6 l37 0 0 -71z m2706 -40 c42 -43 94 -116 82 -116 -2 0
-48 45 -103 101 -77 77 -92 97 -66 84 19 -10 58 -41 87 -69z m-2706 -401 l0
-70 -190 190 c-104 104 -190 194 -190 198 0 5 12 24 27 43 l26 35 164 -163
163 -163 0 -70z m-28 -252 c3 46 11 93 17 103 7 14 10 -135 11 -548 l0 -568
-65 0 c-36 0 -80 6 -98 14 -40 18 -232 212 -246 249 -6 16 -11 56 -11 90 l0
62 195 -195 195 -195 0 150 0 150 -195 195 -195 195 0 70 0 70 195 -195 195
-195 0 150 0 150 -195 195 -195 195 0 80 0 80 194 -194 193 -193 5 85z m3777
-657 c40 -87 88 -190 107 -228 48 -95 60 -163 40 -231 -44 -152 -216 -222
-351 -143 -86 51 -140 174 -116 264 6 21 60 140 121 265 60 124 110 231 110
238 0 26 19 -9 89 -165z"/>
<path d="M13367 18052 c-88 -59 -84 -96 47 -411 58 -140 106 -257 106 -260 0
-3 -57 -5 -127 -3 l-128 3 155 -155 c85 -86 158 -156 162 -156 4 0 8 30 10 68
l3 67 129 -315 c71 -173 138 -327 148 -343 33 -46 66 -57 180 -57 l102 0 201
-200 201 -200 149 0 150 0 -193 193 c-105 106 -192 196 -192 200 0 4 28 7 62
7 l62 0 202 -201 202 -201 71 4 c50 2 78 9 97 24 61 45 65 38 -148 251 -194
194 -198 199 -192 233 4 23 -1 54 -15 90 -12 30 -21 57 -21 60 0 3 86 -81 191
-185 106 -105 189 -183 186 -175 -3 8 -49 121 -102 250 l-97 235 -199 200
-198 200 -42 100 c-22 55 -43 107 -46 115 -3 8 81 -70 187 -175 106 -104 190
-183 188 -175 -13 38 -172 419 -189 451 -29 57 -61 72 -168 78 l-94 6 -68 164
c-46 110 -78 175 -99 195 l-30 31 -408 3 c-383 2 -409 1 -435 -16z"/>
<path d="M9080 17771 c-105 -22 -221 -118 -270 -224 -72 -152 -39 -346 78
-470 50 -53 145 -98 230 -109 l77 -10 195 -194 195 -194 150 0 150 0 -235 235
c-129 129 -232 236 -229 237 2 2 21 19 42 38 l37 34 273 -272 272 -272 150 0
150 0 -383 383 c-339 339 -382 386 -382 413 0 158 -88 302 -225 370 -63 31
-85 37 -157 40 -45 1 -99 0 -118 -5z"/>
<path d="M9170 16755 c0 -146 39 -185 185 -185 l90 0 -130 130 c-71 72 -133
130 -137 130 -5 0 -8 -34 -8 -75z"/>
<path d="M2675 16433 c-33 -9 -65 -35 -81 -64 -21 -41 -21 -647 0 -688 28 -52
59 -64 226 -80 143 -15 155 -18 158 -37 2 -11 81 -98 177 -194 l174 -174 128
-12 c227 -22 227 -43 3 182 l-195 196 49 -6 c27 -3 65 -6 84 -6 33 0 51 -15
236 -199 l201 -200 155 -14 c85 -8 157 -13 160 -11 2 3 -82 91 -188 197 l-192
193 76 -7 76 -6 197 -197 198 -197 144 -14 c79 -8 153 -15 164 -15 14 0 -41
61 -175 195 l-195 195 40 -1 c120 -1 115 1 328 -211 l195 -195 129 -11 c228
-21 227 -42 3 184 -134 135 -187 195 -170 190 14 -3 47 -6 74 -6 l50 0 200
-200 201 -199 155 -15 c85 -8 157 -13 159 -10 3 3 -80 91 -184 195 l-190 191
79 -5 80 -6 197 -197 198 -198 128 -12 c227 -22 226 -42 10 174 -103 103 -187
191 -187 195 0 5 30 6 68 2 l67 -7 201 -199 c148 -147 206 -199 225 -199 13
-1 86 -7 162 -13 75 -7 137 -12 137 -10 0 1 -86 88 -191 193 -105 105 -189
193 -187 195 1 2 38 -1 82 -5 l78 -8 198 -197 197 -197 149 -14 c82 -7 156
-14 164 -14 8 0 -73 88 -180 196 l-195 196 75 -6 75 -7 200 -198 200 -198 141
-12 c77 -6 149 -11 159 -11 14 0 -41 61 -170 190 -104 104 -187 191 -184 194
3 3 38 3 79 -1 l75 -6 200 -198 c228 -226 229 -227 296 -160 22 21 39 48 39
59 0 11 3 28 6 37 5 12 -47 70 -195 218 l-201 203 0 69 0 70 193 -193 c106
-105 195 -192 199 -192 3 0 7 64 7 141 l2 141 -116 118 -117 118 -84 7 -84 7
0 137 c0 152 -11 191 -67 223 -24 14 -430 53 -2343 223 -1273 113 -2337 207
-2365 209 -27 3 -59 2 -70 -1z"/>
<path d="M14230 16247 c0 -5 11 -32 25 -62 21 -43 34 -58 70 -75 25 -12 49
-20 55 -18 6 2 -26 39 -70 83 -44 44 -80 76 -80 72z"/>
<path d="M17640 15619 c0 -5 5 -7 10 -4 6 3 10 8 10 11 0 2 -4 4 -10 4 -5 0
-10 -5 -10 -11z"/>
<path d="M17621 15564 c-32 -40 -25 -48 19 -23 40 23 47 41 18 47 -9 2 -25 -9
-37 -24z"/>
<path d="M17639 15515 c-43 -22 -92 -75 -69 -75 14 0 118 59 126 72 15 23 -14
25 -57 3z"/>
<path d="M17625 15441 c-68 -38 -116 -82 -97 -89 17 -5 187 94 190 112 5 24
-16 19 -93 -23z"/>
<path d="M17613 15366 c-68 -37 -116 -70 -122 -83 -6 -13 -8 -23 -4 -23 5 0
160 81 237 123 12 7 22 12 24 13 5 2 -10 34 -17 33 -3 -1 -56 -29 -118 -63z"/>
<path d="M2980 15351 c0 -48 4 -57 38 -91 30 -30 47 -39 90 -45 29 -4 55 -5
57 -3 3 2 -38 46 -90 98 l-95 95 0 -54z"/>
<path d="M17608 15296 c-98 -54 -151 -89 -158 -105 -6 -13 -9 -25 -8 -26 2 -1
75 37 163 86 144 80 182 109 158 121 -4 3 -74 -32 -155 -76z"/>
<path d="M17688 15271 c-48 -27 -126 -70 -175 -96 -87 -46 -113 -67 -113 -91
0 -7 82 32 182 87 99 54 184 99 188 99 13 0 28 23 23 36 -7 20 -8 19 -105 -35z"/>
<path d="M17585 15149 c-110 -60 -206 -117 -212 -126 -30 -39 -10 -41 55 -4
37 21 108 60 157 86 50 26 115 62 145 80 30 17 63 34 73 38 21 8 18 31 -4 34
-8 0 -104 -48 -214 -108z"/>
<path d="M17805 15201 c-6 -4 -39 -24 -75 -43 -378 -204 -420 -230 -420 -260
0 -5 28 5 63 24 34 19 153 83 264 144 144 77 203 114 203 127 0 18 -20 23 -35
8z"/>
<path d="M17755 15103 c-44 -24 -118 -65 -165 -89 -241 -129 -306 -167 -317
-190 -6 -13 -9 -24 -5 -24 4 0 152 79 447 240 28 15 74 40 103 56 50 27 62 47
31 51 -8 0 -50 -19 -94 -44z"/>
<path d="M17810 15066 c-36 -19 -179 -97 -319 -174 -228 -125 -284 -162 -268
-179 5 -5 626 327 655 350 13 10 17 37 5 37 -5 0 -37 -15 -73 -34z"/>
<path d="M17760 14970 c-80 -43 -239 -130 -355 -192 -173 -93 -211 -117 -213
-137 -4 -25 -7 -26 188 81 95 53 160 88 320 173 138 74 191 103 218 121 2 1 0
9 -5 18 -7 12 -33 1 -153 -64z"/>
<path d="M17835 14944 c-44 -25 -136 -75 -205 -111 -69 -36 -129 -69 -135 -73
-10 -7 -50 -29 -220 -120 -76 -41 -105 -64 -105 -82 0 -4 4 -8 10 -8 7 0 397
209 590 317 19 11 67 36 107 57 49 26 70 42 66 52 -8 21 -20 17 -108 -32z"/>
<path d="M17589 14742 c-200 -108 -376 -203 -391 -211 -16 -8 -28 -23 -28 -33
0 -24 5 -23 70 13 30 17 98 53 150 81 102 55 317 171 415 225 33 18 84 45 113
60 48 25 64 45 44 57 -5 3 -173 -84 -373 -192z"/>
<path d="M17829 14805 c-80 -45 -190 -106 -245 -135 -381 -202 -412 -221 -402
-249 1 -5 93 40 203 100 110 61 252 138 315 171 111 59 292 158 297 162 2 2
-3 9 -10 17 -10 14 -32 5 -158 -66z"/>
<path d="M1836 14840 c-15 -5 -37 -17 -48 -27 -45 -39 -48 -66 -48 -380 0
-328 2 -343 63 -387 26 -19 44 -21 246 -24 l218 -3 194 -195 194 -194 150 0
150 0 -195 195 -195 195 80 0 80 0 195 -195 195 -195 150 0 150 0 -195 195
-195 195 70 0 70 0 195 -195 195 -195 150 0 150 0 -195 195 -195 195 80 0 80
0 195 -195 195 -195 150 0 150 0 -195 195 -195 195 70 0 70 0 195 -195 195
-195 150 0 150 0 -195 195 -195 195 70 0 70 0 195 -195 195 -195 150 0 150 0
-195 195 -195 195 80 0 80 0 195 -195 195 -195 150 0 150 0 -195 195 -195 195
70 0 70 0 195 -195 195 -195 150 0 150 0 -195 195 -195 195 78 0 78 0 193
-194 194 -193 107 -5 c75 -4 110 -10 116 -19 5 -8 9 -379 9 -825 0 -779 -1
-814 -20 -875 -48 -158 -191 -301 -347 -349 -63 -19 -92 -20 -1037 -20 -1042
-1 -1072 -2 -1173 -52 -113 -56 -206 -189 -219 -316 -5 -44 -10 -60 -17 -53
-7 7 -64 11 -143 11 l-132 0 -11 62 c-24 135 -99 236 -219 295 -74 37 -79 38
-181 38 -97 -1 -111 -3 -166 -30 -221 -110 -301 -381 -174 -591 19 -30 47 -68
64 -84 42 -40 160 -100 198 -100 68 0 77 -8 77 -62 l0 -49 145 -144 144 -145
153 0 153 0 -215 215 c-118 118 -210 215 -204 215 6 0 28 12 49 26 l38 26 241
-241 241 -241 150 0 150 0 -328 328 -329 329 7 39 c4 21 9 47 12 58 4 15 87
-63 392 -368 l386 -386 150 0 150 0 -193 193 c-105 106 -192 194 -192 197 0 3
35 4 78 2 l77 -4 195 -194 195 -194 150 0 150 0 -195 195 -195 195 70 0 70 0
195 -195 195 -195 150 0 150 0 -195 195 -195 195 80 0 80 0 195 -195 195 -195
150 0 150 0 -195 195 -195 195 70 0 70 0 195 -195 195 -195 150 0 150 0 -195
195 -195 195 80 0 80 0 195 -195 195 -195 150 0 150 0 -195 195 -195 195 70 0
70 0 195 -195 195 -195 120 1 c192 2 194 -15 -25 204 -104 104 -190 193 -190
196 0 4 28 12 62 18 l63 11 200 -199 200 -199 50 14 c78 23 165 56 165 63 0 3
-88 94 -195 201 l-195 195 47 23 46 24 197 -197 c161 -161 201 -196 218 -191
16 5 111 64 157 98 6 4 -76 93 -188 206 l-198 199 35 26 c19 15 38 27 43 27 4
0 94 -85 198 -190 104 -104 194 -190 200 -190 6 0 42 32 80 70 l70 70 -200
200 -199 200 34 37 c19 21 36 40 38 42 1 3 92 -84 201 -193 l199 -199 36 49
c19 27 46 68 58 91 l23 43 -198 198 -198 199 22 39 c12 21 24 41 26 44 2 2 90
-82 196 -188 106 -106 195 -192 199 -192 7 0 52 110 68 169 l12 44 -197 197
-197 197 7 50 c3 27 10 55 15 62 5 10 61 -40 200 -178 106 -106 195 -189 198
-186 3 3 7 67 10 143 l4 137 -196 195 -196 195 0 62 c0 35 3 63 7 63 4 0 92
-84 195 -187 l188 -188 0 150 0 150 -195 195 -195 195 0 75 0 75 195 -195 195
-195 0 150 0 149 -195 196 -195 196 0 69 0 70 195 -195 195 -195 0 152 0 151
-198 199 -199 200 -6 62 c-4 34 -10 74 -13 89 -5 20 42 -20 191 -168 218 -216
213 -214 158 -51 -68 206 -158 347 -341 533 -74 76 -150 148 -169 160 -18 13
-59 57 -90 98 -81 108 -244 265 -351 338 -113 77 -290 164 -394 192 -212 58
-14 53 -2668 56 -1355 1 -2448 -1 -2464 -6z m4534 -1017 c0 -8 -9 0 -50 45
l-45 47 48 -45 c26 -24 47 -45 47 -47z m1115 -1303 c-3 -6 -2 -10 2 -10 5 0
26 -37 47 -82 20 -46 41 -90 46 -98 5 -8 23 -44 40 -79 52 -104 41 -202 -29
-265 -11 -10 -25 -15 -31 -11 -6 3 -9 1 -8 -5 3 -12 -7 -16 -67 -25 -82 -12
-174 48 -196 128 -16 60 -6 122 34 202 53 105 97 201 97 208 0 4 10 28 22 53
l21 46 14 -26 c8 -15 11 -31 8 -36z m-389 -585 c9 -18 7 -21 -10 -21 -14 1
-22 -6 -24 -20 -4 -31 24 -38 43 -11 16 22 16 22 9 -6 -5 -23 -3 -29 14 -34
20 -5 38 -43 20 -43 -5 0 -8 -10 -6 -22 2 -15 10 -23 23 -23 29 0 35 -26 12
-46 -25 -20 -13 -43 19 -36 13 2 24 0 24 -5 0 -6 9 -21 20 -36 14 -17 17 -29
11 -35 -13 -13 4 -47 23 -47 20 0 28 -27 10 -34 -21 -8 -17 -37 7 -43 18 -5
19 -11 13 -47 -3 -22 -13 -45 -21 -49 -10 -6 -13 -17 -9 -33 4 -13 3 -24 -1
-23 -23 4 -33 -3 -33 -21 0 -31 -50 -70 -79 -63 -17 4 -28 0 -37 -12 -9 -13
-20 -16 -39 -11 -17 4 -33 2 -43 -6 -9 -7 -13 -8 -9 -2 3 6 0 20 -7 30 -14 18
-15 18 -36 -1 l-21 -19 6 25 c8 33 -17 46 -41 22 -16 -16 -16 -16 -10 4 7 22
-17 45 -39 37 -6 -3 -18 8 -26 23 -17 30 -32 103 -21 102 24 -4 33 3 30 24 -2
14 -9 21 -21 21 -18 -2 -24 30 -7 41 6 3 10 14 10 24 0 10 7 24 15 31 8 7 15
19 15 27 0 8 7 21 16 30 8 9 13 21 11 28 -3 6 4 17 15 24 12 8 17 18 13 30 -4
13 1 20 16 24 15 4 19 11 15 25 -5 13 -1 22 10 26 11 4 15 14 12 31 -3 15 -1
25 6 25 24 0 36 22 24 44 -6 12 -7 18 -3 14 4 -4 16 -3 27 3 17 9 18 13 5 32
-13 21 -13 22 12 23 18 1 30 -6 37 -21z"/>
<path d="M7034 11845 c-4 -9 -2 -21 4 -27 15 -15 44 -1 40 19 -4 23 -36 29
-44 8z"/>
<path d="M7086 11821 c-9 -14 4 -41 20 -41 15 0 37 34 27 44 -9 9 -41 7 -47
-3z"/>
<path d="M7013 11803 c-15 -5 -16 -22 -4 -42 8 -12 12 -12 25 -2 28 24 13 56
-21 44z"/>
<path d="M7060 11765 c-10 -12 -10 -18 0 -29 16 -20 42 -8 38 17 -4 26 -21 32
-38 12z"/>
<path d="M6981 11746 c-16 -19 -7 -46 14 -46 22 0 30 29 13 46 -13 13 -16 13
-27 0z"/>
<path d="M7114 11735 c-7 -18 3 -35 22 -35 20 0 30 30 13 41 -20 12 -29 11
-35 -6z"/>
<path d="M7025 11710 c-8 -13 13 -40 30 -40 15 0 24 19 18 38 -6 15 -39 16
-48 2z"/>
<path d="M6953 11693 c-17 -6 -17 -40 0 -46 20 -8 39 8 35 28 -3 20 -16 26
-35 18z"/>
<path d="M7084 11675 c-4 -9 -2 -21 4 -27 15 -15 44 -1 40 19 -4 23 -36 29
-44 8z"/>
<path d="M7001 11657 c-8 -10 -7 -18 2 -31 11 -15 15 -15 32 -2 16 12 17 16 6
30 -16 19 -25 20 -40 3z"/>
<path d="M7145 11656 c-18 -13 -19 -16 -4 -31 9 -9 23 -13 32 -9 20 7 21 15 4
37 -11 16 -14 16 -32 3z"/>
<path d="M6914 11625 c-4 -9 -2 -21 4 -27 15 -15 44 -1 40 19 -4 23 -36 29
-44 8z"/>
<path d="M7057 11633 c-4 -3 -7 -15 -7 -25 0 -13 7 -18 25 -18 29 0 36 34 9
44 -19 7 -19 7 -27 -1z"/>
<path d="M7200 11625 c-16 -19 -5 -47 17 -43 22 4 29 43 9 51 -8 3 -20 -1 -26
-8z"/>
<path d="M6972 11588 c4 -27 33 -36 42 -13 8 22 -1 35 -25 35 -15 0 -20 -6
-17 -22z"/>
<path d="M7111 11596 c-9 -11 -8 -18 5 -31 15 -15 18 -15 32 -1 13 12 13 18 2
30 -15 20 -24 20 -39 2z"/>
<path d="M6893 11583 c-17 -6 -17 -28 0 -41 17 -14 40 1 35 23 -3 20 -16 26
-35 18z"/>
<path d="M7024 11565 c-4 -9 -2 -21 4 -27 15 -15 44 -1 40 19 -4 23 -36 29
-44 8z"/>
<path d="M7173 11573 c-17 -6 -17 -28 0 -41 17 -14 40 1 35 23 -3 20 -16 26
-35 18z"/>
<path d="M6941 11541 c-16 -28 14 -51 36 -28 13 13 14 19 3 31 -17 21 -27 20
-39 -3z"/>
<path d="M7093 11553 c-16 -6 -17 -39 -2 -49 6 -3 18 1 27 10 14 14 14 18 2
30 -8 7 -21 12 -27 9z"/>
<path d="M7223 11539 c-16 -16 -5 -39 17 -39 23 0 32 13 24 34 -7 19 -25 21
-41 5z"/>
<path d="M6854 11515 c-4 -9 -2 -21 4 -27 15 -15 44 -1 40 19 -4 23 -36 29
-44 8z"/>
<path d="M6994 11515 c-8 -20 4 -35 26 -35 26 0 33 16 14 34 -19 20 -33 20
-40 1z"/>
<path d="M7140 11515 c-16 -19 -5 -47 17 -43 22 4 29 43 9 51 -8 3 -20 -1 -26
-8z"/>
<path d="M6907 11486 c-7 -19 18 -40 39 -32 8 3 14 14 12 23 -4 22 -43 29 -51
9z"/>
<path d="M7049 11484 c-11 -14 -10 -18 6 -30 16 -12 21 -12 34 0 12 12 12 18
1 30 -16 20 -24 20 -41 0z"/>
<path d="M7192 11468 c4 -27 33 -36 42 -13 8 22 -1 35 -25 35 -15 0 -20 -6
-17 -22z"/>
<path d="M6967 11463 c-12 -11 -7 -33 8 -39 20 -8 45 13 38 32 -5 14 -34 19
-46 7z"/>
<path d="M7113 11463 c-16 -6 -17 -25 -1 -41 8 -8 17 -8 30 -1 14 8 16 14 8
29 -11 20 -16 22 -37 13z"/>
<path d="M7244 11449 c-8 -14 21 -43 35 -35 6 4 11 16 11 27 0 21 -34 27 -46
8z"/>
<path d="M6887 11437 c-15 -10 -16 -15 -5 -30 12 -16 15 -16 33 -3 18 13 18
16 5 30 -13 13 -19 14 -33 3z"/>
<path d="M7017 11426 c-7 -19 18 -40 39 -32 8 3 14 14 12 23 -4 22 -43 29 -51
9z"/>
<path d="M7162 11428 c-15 -18 1 -41 24 -36 23 4 26 41 3 46 -9 1 -21 -3 -27
-10z"/>
<path d="M6936 11404 c-10 -27 -7 -34 19 -34 29 0 36 34 9 44 -21 8 -21 8 -28
-10z"/>
<path d="M7077 11403 c-12 -11 -7 -33 8 -39 20 -8 45 13 38 32 -5 14 -34 19
-46 7z"/>
<path d="M7214 11395 c-8 -19 3 -35 25 -35 25 0 32 10 20 31 -12 23 -37 25
-45 4z"/>
<path d="M6852 11368 c2 -15 10 -23 23 -23 30 0 27 39 -3 43 -20 3 -23 0 -20
-20z"/>
<path d="M6993 11374 c-3 -8 1 -22 9 -30 13 -13 16 -13 28 0 10 13 10 19 0 31
-16 19 -29 19 -37 -1z"/>
<path d="M7132 11358 c2 -15 10 -23 23 -23 30 0 27 39 -3 43 -20 3 -23 0 -20
-20z"/>
<path d="M6904 11345 c-8 -20 4 -35 27 -35 14 0 19 7 19 25 0 18 -5 25 -20 25
-11 0 -23 -7 -26 -15z"/>
<path d="M7046 11344 c-8 -21 11 -45 30 -37 20 7 14 47 -7 51 -9 2 -19 -5 -23
-14z"/>
<path d="M7184 11339 c-3 -6 1 -18 9 -27 13 -12 19 -13 31 -3 8 7 12 19 9 27
-6 17 -39 19 -49 3z"/>
<path d="M6960 11311 c0 -24 13 -33 35 -25 23 9 14 38 -13 42 -16 3 -22 -2
-22 -17z"/>
<path d="M7104 11316 c-10 -26 3 -45 26 -39 14 4 20 12 18 27 -4 25 -36 34
-44 12z"/>
<path d="M7014 11285 c-8 -20 4 -35 27 -35 14 0 19 7 19 25 0 18 -5 25 -20 25
-11 0 -23 -7 -26 -15z"/>
<path d="M7156 11285 c-8 -22 1 -35 25 -35 15 0 20 6 17 22 -4 27 -33 36 -42
13z"/>
<path d="M7072 11248 c2 -15 10 -23 23 -23 30 0 27 39 -3 43 -20 3 -23 0 -20
-20z"/>
<path d="M17910 14781 c-46 -25 -226 -123 -400 -218 -180 -98 -316 -178 -318
-187 -5 -25 15 -19 102 28 45 24 108 58 141 76 101 54 296 161 365 199 36 20
100 55 143 76 48 25 76 45 75 54 -5 24 -20 20 -108 -28z"/>
<path d="M18005 14766 c-11 -7 -60 -35 -110 -61 -49 -27 -194 -105 -320 -174
-127 -69 -261 -142 -298 -161 -63 -33 -79 -51 -57 -65 5 -3 69 28 142 68 73
41 178 98 233 127 55 29 118 63 140 75 22 12 101 55 175 95 74 40 136 74 138
75 5 4 -10 35 -17 35 -4 0 -15 -6 -26 -14z"/>
<path d="M18000 14694 c-25 -14 -79 -44 -120 -66 -41 -22 -97 -53 -125 -68
-27 -15 -90 -49 -140 -75 -76 -41 -376 -205 -382 -209 -1 -1 2 -8 7 -16 11
-17 -8 -26 390 190 140 76 295 161 345 187 52 28 91 56 93 66 5 24 -15 21 -68
-9z"/>
<path d="M16390 14542 c-112 -253 -253 -549 -394 -830 -70 -140 -137 -279
-148 -310 -26 -73 -36 -242 -18 -321 82 -373 458 -590 825 -475 125 40 272
158 343 277 63 105 85 187 85 322 1 143 -15 196 -116 400 -55 111 -139 291
-252 540 -40 88 -199 462 -220 518 -10 26 -20 47 -24 47 -3 0 -40 -75 -81
-168z"/>
<path d="M18065 14661 c-6 -5 -80 -46 -165 -91 -191 -102 -276 -148 -315 -170
-16 -10 -66 -37 -110 -60 -209 -112 -220 -119 -195 -135 8 -5 82 31 235 115
17 9 153 83 303 165 205 112 272 152 272 166 0 20 -10 24 -25 10z"/>
<path d="M18015 14566 c-44 -23 -125 -67 -180 -98 -104 -58 -137 -75 -375
-203 -80 -43 -147 -80 -149 -81 -2 -2 2 -10 8 -18 11 -13 17 -12 49 6 20 11
145 79 277 151 432 233 464 252 465 264 0 24 -18 20 -95 -21z"/>
<path d="M18029 14505 c-41 -23 -120 -66 -175 -95 -236 -126 -470 -254 -482
-263 -9 -7 -9 -13 -1 -23 10 -12 17 -11 43 5 17 10 72 40 121 66 50 26 95 51
100 55 6 4 55 31 110 60 55 30 138 74 185 99 47 25 106 57 132 71 49 26 61 39
50 57 -4 6 -36 -6 -83 -32z"/>
<path d="M18065 14457 c-22 -13 -87 -48 -145 -79 -196 -104 -495 -269 -504
-278 -4 -4 1 -11 11 -14 13 -4 50 11 109 42 49 27 125 68 169 91 129 70 317
172 363 198 27 15 42 31 42 43 0 24 3 25 -45 -3z"/>
<path d="M18020 14365 c-41 -22 -102 -56 -135 -74 -33 -18 -132 -72 -220 -118
-181 -97 -197 -108 -167 -117 19 -6 43 6 464 235 81 45 129 77 133 90 4 11 5
22 3 23 -1 1 -37 -16 -78 -39z"/>
<path d="M17915 14241 c-119 -65 -208 -113 -335 -182 l-25 -13 30 -6 c20 -4
42 1 65 13 19 11 117 64 217 119 106 58 188 109 197 123 25 38 6 31 -149 -54z"/>
<path d="M17838 14132 c-86 -48 -154 -90 -152 -93 7 -12 85 11 143 43 31 17
70 38 86 47 17 9 41 25 53 36 26 22 47 55 35 54 -4 0 -78 -39 -165 -87z"/>
<path d="M2150 13849 l0 -141 39 -39 39 -39 143 0 144 0 -180 180 c-99 99
-181 180 -182 180 -2 0 -3 -64 -3 -141z"/>
<path d="M13030 12379 l0 -141 39 -39 39 -39 143 0 144 0 -180 180 c-99 99
-181 180 -182 180 -2 0 -3 -64 -3 -141z"/>
<path d="M10985 11890 c-27 -11 -61 -49 -74 -83 -20 -51 -69 -700 -103 -1352
-17 -325 -17 -1814 0 -2145 21 -411 42 -731 68 -1040 34 -409 30 -403 260
-408 l144 -4 0 -26 c0 -20 37 -63 167 -194 l167 -168 151 0 150 0 -195 195
-195 195 70 0 70 0 195 -195 195 -195 150 0 150 0 -195 195 -195 195 75 0 75
0 195 -195 c150 -150 201 -195 220 -195 64 0 128 80 116 144 -5 23 -55 80
-201 226 l-195 196 -6 69 -6 70 190 -190 c105 -104 194 -187 196 -184 3 3 -1
76 -8 164 l-14 158 -197 197 -196 196 -6 80 -5 79 181 -180 c157 -155 188
-191 223 -258 52 -99 157 -212 252 -272 40 -25 79 -45 86 -45 7 0 108 -94 224
-209 l211 -208 72 -17 c40 -9 115 -16 170 -16 l98 0 -195 195 -195 195 65 0
65 0 195 -195 195 -195 155 0 155 0 -195 195 -195 195 75 0 75 0 195 -195 195
-195 155 0 155 0 -195 195 -195 195 65 0 65 0 195 -195 195 -195 155 0 155 0
-195 195 -195 195 75 0 75 0 195 -195 195 -195 155 0 155 0 -195 195 -195 195
65 0 65 0 195 -195 195 -195 155 0 155 0 -195 195 -195 195 75 0 75 0 195
-195 195 -195 150 0 150 0 -195 195 -195 195 70 0 70 0 195 -195 c124 -124
202 -195 215 -195 55 0 115 68 115 132 0 29 -22 54 -200 233 l-200 201 0 69 0
70 200 -200 200 -200 0 151 0 151 -72 74 -73 74 -125 5 -125 5 -5 160 c-5 175
-11 194 -63 222 -30 17 -99 18 -1033 21 l-1001 2 -13 93 -13 92 -67 68 -67 67
-106 0 c-59 0 -109 4 -112 10 -3 5 -17 78 -31 161 -26 157 -37 185 -82 216
-25 17 -65 18 -589 21 l-563 3 0 86 0 87 -200 201 -200 201 0 64 0 65 193
-193 c106 -105 194 -192 197 -192 3 0 4 69 2 152 l-3 153 -195 195 -194 195 0
75 0 75 193 -193 194 -194 6 69 c4 37 7 104 7 147 l0 80 -200 201 c-195 196
-200 202 -200 242 0 88 0 87 206 -118 l194 -194 0 41 c0 23 3 89 7 148 l6 107
-199 202 -199 202 5 68 5 67 190 -190 c104 -104 193 -190 196 -190 3 0 9 62
12 138 l6 137 -201 202 c-147 148 -199 206 -194 218 3 9 6 38 6 63 l0 47 193
-193 c106 -105 195 -192 199 -192 3 0 9 61 13 136 l8 136 -197 197 c-191 191
-196 197 -195 236 2 99 -3 102 203 -104 104 -105 193 -188 198 -185 4 3 8 19
8 35 l0 30 31 -35 c17 -20 47 -40 67 -46 20 -5 111 -10 202 -10 l165 0 195
-195 195 -195 150 0 150 0 -195 195 -195 195 70 0 70 0 195 -195 195 -195 150
0 150 0 -195 195 -195 195 80 0 80 0 195 -195 195 -195 150 0 150 0 -195 195
-195 195 70 0 70 0 195 -195 195 -195 150 0 150 0 -194 194 -193 193 47 7 c94
12 83 19 296 -194 l200 -200 152 0 152 0 -252 253 -252 252 32 38 32 37 290
-290 290 -290 150 0 150 0 -380 380 c-337 337 -383 380 -411 380 -31 0 -31 1
-37 58 -7 77 -27 131 -71 191 -39 53 -133 122 -194 143 -28 9 -284 13 -1087
16 -577 2 -1069 0 -1093 -3 -59 -9 -110 -55 -118 -106 -4 -21 -8 -39 -9 -39
-1 0 -19 7 -38 15 -20 8 -62 15 -94 15 l-58 0 98 -98 98 -98 -3 -75 -3 -74
-174 173 c-95 94 -180 172 -189 172 -12 0 -14 11 -8 63 18 187 18 231 -2 266
-10 19 -34 43 -53 53 -32 17 -70 18 -604 17 -313 0 -579 -4 -590 -9z m1442
-3584 c-9 -13 -18 -39 -19 -56 -2 -31 -5 -29 -130 98 l-128 129 0 74 0 74 147
-147 146 -146 -16 -26z m51 -529 c6 -39 10 -73 8 -74 -1 -1 -71 67 -156 152
l-154 154 -4 68 -4 68 149 -148 150 -148 11 -72z m1521 -135 c-47 -5 -74 5
-113 39 -35 30 -49 61 -61 134 l-6 40 106 -105 106 -105 -32 -3z m661 -231
c16 -16 32 -40 36 -55 9 -38 -3 -74 -36 -107 -23 -24 -37 -29 -75 -29 -38 0
-52 5 -76 29 -28 28 -34 48 -29 101 7 82 120 121 180 61z m1378 6 c13 -15 18
-197 8 -243 -6 -27 -13 -33 -42 -39 -31 -5 -42 -1 -87 33 -108 82 -95 81 -182
22 -96 -65 -142 -85 -236 -105 -136 -29 -324 -13 -419 35 -135 69 -110 191 50
247 69 24 184 43 265 43 95 0 210 -33 336 -95 43 -21 82 -34 94 -31 23 6 140
92 169 125 22 24 30 26 44 8z m-1188 -206 c27 -51 4 -101 -47 -101 -28 0 -63
37 -63 65 0 48 88 76 110 36z"/>
<path d="M15784 11611 c-156 -25 -292 -173 -309 -336 l-7 -65 -36 0 -36 0 45
-47 c26 -27 56 -70 69 -96 31 -66 113 -148 180 -180 43 -20 100 -71 260 -231
l205 -206 155 0 155 0 -212 213 -213 212 42 24 41 23 233 -233 c225 -224 234
-232 258 -221 43 19 66 68 66 141 l0 65 -210 211 -211 211 10 45 c43 185 -46
365 -221 443 -60 28 -180 40 -264 27z"/>
<path d="M17485 11207 c-63 -25 -96 -49 -125 -89 -24 -33 -30 -51 -30 -94 0
-29 4 -55 9 -58 5 -3 12 -27 16 -53 6 -40 15 -56 52 -90 57 -53 98 -57 152
-16 32 25 51 43 108 108 29 32 39 58 47 113 5 41 2 60 -15 96 -11 25 -29 48
-40 51 -10 4 -19 10 -19 15 0 23 -110 35 -155 17z"/>
<path d="M16480 11025 c102 -102 188 -185 192 -185 5 0 8 64 8 141 l0 142 -44
43 -43 44 -149 0 -149 0 185 -185z"/>
<path d="M13010 10647 c0 -105 17 -150 68 -180 24 -14 48 -17 128 -15 l97 3
-142 143 c-79 78 -145 142 -147 142 -2 0 -4 -42 -4 -93z"/>
<path d="M1820 10569 c-105 -20 -116 -35 -99 -146 12 -77 18 -92 45 -119 37
-36 92 -53 152 -49 35 2 51 10 80 39 48 50 62 81 55 119 -7 41 -73 110 -127
132 -22 9 -48 20 -56 24 -8 4 -31 4 -50 0z"/>
<path d="M2980 10429 c0 -44 65 -109 109 -109 17 0 31 2 31 5 0 6 -129 135
-135 135 -3 0 -5 -14 -5 -31z"/>
<path d="M17730 10064 c-25 -19 -49 -43 -54 -52 -5 -9 -19 -24 -30 -33 -17
-14 -20 -28 -20 -103 0 -71 4 -91 20 -113 52 -70 171 -97 229 -51 50 39 70 64
101 129 28 58 31 71 23 110 -4 24 -8 47 -9 51 0 4 -24 26 -54 49 -45 35 -63
43 -107 46 -50 3 -58 0 -99 -33z"/>
<path d="M4440 10061 c-63 -33 -68 -53 -98 -353 l-27 -273 -241 -5 c-352 -7
-329 22 -329 -415 0 -290 2 -323 18 -348 36 -56 58 -62 229 -65 153 -4 158 -4
158 -25 0 -12 16 -37 35 -57 34 -35 35 -36 28 -103 l-6 -68 -28 27 -29 28 0
-53 c0 -36 7 -66 22 -92 l21 -38 -187 -1875 c-188 -1875 -188 -1875 -169
-1913 36 -74 50 -78 272 -81 l198 -3 194 -195 194 -194 150 0 150 0 -195 195
-195 195 80 0 80 0 195 -195 195 -195 150 0 150 0 -195 195 -195 195 70 0 70
0 195 -195 c110 -110 203 -195 213 -195 54 0 98 48 111 124 l8 39 -198 198
-198 198 3 53 c4 104 -4 108 207 -103 126 -126 195 -188 198 -178 2 7 9 68 16
134 l11 119 -196 196 -195 195 0 47 c0 93 -1 94 206 -113 126 -126 195 -188
198 -178 2 7 9 68 16 134 l11 119 -196 196 -195 195 1 50 c1 99 -1 100 196
-98 l181 -182 20 -100 c33 -169 90 -285 196 -401 60 -67 150 -136 223 -173 31
-16 49 -34 67 -69 39 -76 113 -168 184 -227 65 -55 228 -145 260 -145 10 0
-68 85 -173 190 -104 105 -184 190 -177 190 7 0 46 -5 85 -11 l72 -12 195
-193 195 -194 155 0 155 0 -195 195 -195 195 65 0 65 0 195 -195 195 -195 155
0 155 0 -195 195 -195 195 75 0 75 0 195 -195 195 -195 155 0 155 0 -195 195
-195 195 65 0 65 0 195 -195 195 -195 155 0 155 0 -195 195 -195 195 75 0 75
0 195 -195 195 -195 155 0 155 0 -195 195 -195 195 65 0 65 0 195 -195 195
-195 155 0 155 0 -195 195 -195 195 65 0 65 0 195 -195 195 -195 155 0 155 0
-195 195 -195 195 75 0 75 0 195 -195 195 -195 147 0 c82 0 148 3 148 8 0 4
-87 94 -193 200 l-194 194 31 32 31 32 197 -195 c109 -107 201 -192 205 -187
4 4 9 69 11 143 l4 135 -201 202 -201 202 0 184 c0 204 -7 233 -63 274 -28 21
-33 21 -1206 24 l-1177 2 -17 108 -17 107 -105 105 -105 105 -78 5 -77 5 -26
150 c-28 159 -45 206 -82 227 -17 10 -158 14 -607 18 l-585 5 4 69 3 69 -197
197 -198 198 8 57 7 58 194 -194 c106 -106 195 -191 198 -189 2 3 10 65 17
138 l12 134 -197 197 -198 198 7 68 8 67 197 -197 197 -197 6 54 c4 29 10 93
13 141 l7 89 -197 197 -197 197 7 58 7 58 129 -129 c72 -70 141 -145 154 -166
46 -71 74 -80 245 -78 l149 2 0 -152 0 -152 44 -43 43 -44 154 0 154 0 -195
195 -195 195 65 0 65 0 195 -195 195 -195 155 0 155 0 -195 195 -195 195 75 0
75 0 195 -195 195 -195 155 0 155 0 -195 195 -195 195 65 0 65 0 195 -195 195
-195 155 0 155 0 -195 195 -195 195 75 0 75 0 195 -195 195 -195 150 0 150 0
-195 195 -195 195 70 0 70 0 195 -195 196 -196 149 3 149 3 -193 193 -194 192
79 0 79 0 195 -195 195 -195 150 0 150 0 -195 195 -195 195 70 0 70 0 195
-195 195 -195 150 0 150 0 -195 195 -195 195 80 0 80 0 195 -195 195 -195 150
0 150 0 -195 195 c-138 139 -189 195 -175 195 11 1 36 7 57 14 l36 13 198
-198 c109 -109 202 -195 207 -192 25 15 47 91 47 162 l0 75 -200 201 -200 201
0 72 c0 40 3 72 6 72 4 0 86 -80 184 -177 97 -98 184 -184 193 -192 16 -12 17
-2 17 134 l0 146 -56 59 -57 59 -141 3 -141 3 -5 155 c-5 169 -12 191 -67 227
-26 17 -132 18 -1955 21 l-1928 2 0 33 c1 17 5 66 10 107 l9 75 -192 193 -192
192 65 0 65 0 195 -195 195 -195 155 0 155 0 -195 195 -195 195 75 0 75 0 195
-195 195 -195 150 0 150 0 -195 195 -195 195 70 0 70 0 195 -195 196 -196 148
3 149 3 -192 193 -193 192 79 0 78 0 195 -195 195 -195 150 0 150 0 -195 195
-195 195 70 0 70 0 195 -195 195 -195 150 0 150 0 -195 195 -195 195 80 0 80
0 195 -195 195 -195 150 0 150 0 -194 194 -193 194 58 10 59 11 205 -205 205
-204 150 0 150 0 -254 254 -254 254 33 41 c18 23 35 41 38 41 2 0 137 -133
299 -295 l295 -295 151 0 152 0 -405 405 c-223 223 -412 405 -420 405 -11 0
-18 18 -26 69 -14 88 -46 152 -109 217 -62 63 -132 100 -216 114 -41 6 -461
10 -1182 10 l-1118 0 -126 125 -125 125 -79 0 c-57 0 -79 4 -79 13 0 6 5 53
10 102 17 146 15 190 -10 226 -44 60 -28 59 -732 59 -608 0 -645 -1 -678 -19z
m1460 -576 l54 -55 -64 0 -65 0 3 55 c2 30 7 55 11 55 4 0 31 -25 61 -55z
m-16 -1324 c158 -158 159 -160 130 -167 -16 -3 -40 -13 -53 -21 -23 -15 -26
-12 -142 104 l-119 118 6 63 c4 34 10 62 13 62 3 0 78 -72 165 -159z m16 -541
l0 -65 -120 120 -121 121 7 58 7 58 113 -113 114 -114 0 -65z m-150 -1588 c-8
-3 -27 -18 -41 -33 l-26 -28 -91 92 c-98 99 -100 103 -85 190 l6 39 126 -127
c89 -90 122 -129 111 -133z m-25 -466 c4 -33 9 -66 12 -75 3 -9 -58 47 -136
124 -128 127 -141 143 -141 175 0 19 3 46 7 59 6 22 16 14 128 -100 l123 -124
7 -59z m1744 -354 c-77 -12 -168 55 -194 141 -30 101 -22 99 100 -23 97 -97
112 -116 94 -118z m-2873 169 c103 -47 133 -176 60 -259 -38 -43 -81 -62 -143
-62 -156 1 -242 159 -151 275 29 37 93 65 148 65 25 0 63 -9 86 -19z m393
-387 c102 -86 -21 -248 -133 -175 -54 36 -70 94 -41 151 20 39 41 49 97 50 36
0 54 -6 77 -26z m4555 -11 c135 -37 186 -61 233 -111 23 -24 41 -47 41 -51 -1
-3 2 -17 6 -30 17 -48 -51 -131 -139 -171 -108 -49 -345 -77 -485 -57 -51 7
-150 35 -165 47 -5 4 -21 11 -35 15 -41 12 -174 81 -253 129 -13 9 -28 5 -65
-14 -26 -13 -49 -27 -52 -30 -3 -3 -23 -17 -45 -30 -22 -14 -57 -40 -78 -59
-32 -29 -39 -32 -53 -20 -14 12 -16 29 -10 119 6 96 18 201 31 258 6 26 38 30
57 6 32 -40 115 -118 154 -145 46 -32 62 -30 107 9 9 8 17 12 17 8 0 -4 15 4
33 17 74 56 207 113 292 124 22 3 42 7 44 9 2 2 64 3 139 2 111 0 151 -5 226
-25z"/>
<path d="M1450 9843 c-14 -3 -29 -9 -34 -14 -6 -5 -18 -9 -27 -9 -25 0 -99
-87 -96 -114 1 -15 -4 -22 -21 -24 -48 -7 -41 -59 14 -116 66 -68 152 -93 212
-62 28 14 121 108 123 123 0 4 3 17 5 28 12 53 10 68 -16 104 -43 59 -107 93
-160 84z"/>
<path d="M18838 9690 c-48 -20 -88 -52 -88 -70 0 -5 -4 -10 -8 -10 -17 0 -52
-95 -48 -130 2 -19 -1 -44 -7 -54 -16 -32 29 -64 84 -59 179 14 259 53 297
142 22 50 20 77 -7 121 -20 32 -38 47 -80 65 -44 20 -86 18 -143 -5z"/>
<path d="M6214 9632 c41 -43 57 -49 35 -14 -7 11 -26 28 -43 37 -30 17 -30 16
8 -23z"/>
<path d="M9500 9421 c-152 -24 -297 -183 -315 -343 l-6 -58 -57 0 -56 0 66
-67 c36 -38 78 -92 93 -122 35 -69 113 -147 190 -188 45 -24 109 -82 260 -233
l200 -200 150 0 150 0 -213 213 -213 213 42 28 42 28 237 -237 c220 -220 239
-236 259 -225 40 21 61 69 61 140 l0 65 -210 210 c-115 115 -210 215 -210 222
0 7 5 35 11 64 l11 52 192 -192 c105 -105 195 -191 199 -191 4 0 7 66 7 146
l0 146 -61 64 -62 63 -135 3 -136 3 -12 68 c-17 91 -48 150 -114 217 -73 74
-144 107 -246 113 -43 3 -99 2 -124 -2z"/>
<path d="M1462 8977 c-61 -12 -148 -67 -194 -124 -37 -44 -40 -51 -34 -93 12
-90 39 -195 55 -210 24 -23 61 -78 61 -90 0 -5 6 -10 13 -10 6 0 44 -30 82
-66 39 -36 84 -73 100 -81 17 -9 50 -33 74 -54 24 -22 48 -39 53 -39 5 0 24
-11 41 -24 49 -36 250 -136 274 -136 12 0 23 -5 25 -10 3 -11 94 -35 168 -44
25 -3 56 -8 70 -11 82 -18 348 -24 565 -12 l140 8 40 -62 c22 -34 42 -67 44
-73 2 -6 22 -34 43 -62 21 -28 38 -55 38 -60 0 -5 11 -26 24 -45 14 -20 28
-49 32 -65 4 -16 10 -33 14 -39 4 -5 17 -37 30 -70 41 -106 54 -117 103 -94
20 9 26 21 31 65 7 65 42 169 67 206 11 14 19 33 19 41 0 9 5 19 10 22 6 3 10
13 10 22 0 9 6 24 13 32 7 9 26 48 42 86 15 39 32 74 37 80 4 5 8 37 8 71 0
42 5 65 15 74 21 18 19 62 -5 88 -24 25 -28 26 -66 12 -21 -8 -31 -7 -44 5
-22 20 -43 19 -64 -3 -34 -39 -303 -121 -386 -118 -29 1 -37 7 -57 46 -13 24
-32 54 -41 65 -31 35 -82 113 -82 124 0 6 -12 24 -27 40 -16 16 -46 55 -68 86
-22 32 -49 64 -59 73 -11 10 -44 39 -73 66 -30 27 -62 54 -72 60 -10 6 -29 18
-42 27 -62 42 -223 139 -231 139 -5 0 -37 13 -71 29 -132 63 -326 118 -449
127 -141 10 -231 11 -276 1z m233 -101 c117 -14 195 -28 201 -37 3 -5 16 -6
29 -3 36 9 45 -25 30 -111 -29 -172 -189 -345 -319 -345 -40 0 -50 6 -127 75
-46 42 -91 88 -99 103 -9 15 -26 42 -37 61 -13 20 -25 60 -29 98 -6 61 -5 66
22 94 63 67 154 84 329 65z m397 -355 c22 -5 49 -22 65 -42 29 -33 41 -83 23
-94 -6 -3 -10 -19 -10 -34 0 -22 -7 -29 -35 -40 -33 -11 -39 -10 -89 18 -77
45 -100 87 -81 154 14 51 41 60 127 38z m1353 -421 c10 -16 8 -116 -4 -136 -5
-10 -29 -59 -52 -109 -70 -152 -101 -215 -108 -215 -4 0 -19 24 -34 53 -32 61
-33 64 -115 190 -36 53 -68 97 -73 97 -5 0 -9 4 -9 9 0 5 30 14 68 21 92 17
181 44 272 84 42 18 47 19 55 6z"/>
<path d="M1617 8748 c-44 -22 -56 -57 -33 -93 23 -35 93 -36 124 -2 60 63 -11
137 -91 95z"/>
<path d="M18574 8479 c-2 -4 -20 -5 -39 -2 -21 3 -41 1 -50 -7 -8 -7 -25 -10
-37 -7 -12 4 -27 2 -32 -2 -6 -5 -27 -11 -46 -14 -71 -11 -132 -27 -174 -46
-24 -10 -62 -22 -85 -26 -22 -4 -57 -18 -76 -31 -20 -13 -44 -24 -53 -24 -9 0
-30 -9 -47 -20 -16 -11 -37 -20 -46 -20 -9 0 -19 -6 -22 -14 -3 -7 -25 -23
-49 -35 -36 -18 -108 -76 -181 -148 -75 -74 -195 -204 -210 -226 -22 -34 -48
-34 -121 -2 -31 14 -64 25 -72 25 -9 0 -28 8 -42 19 -15 10 -38 22 -50 26 -13
4 -32 14 -41 23 -10 10 -31 25 -47 34 -16 10 -41 27 -57 40 -24 20 -31 21 -60
10 -28 -11 -33 -10 -47 8 -19 26 -40 19 -63 -19 -20 -34 -22 -62 -6 -78 8 -8
8 -29 0 -78 -7 -41 -8 -71 -3 -78 5 -7 12 -28 14 -47 5 -39 41 -180 62 -250
21 -66 37 -169 34 -220 -3 -40 0 -46 25 -58 25 -12 31 -12 46 2 10 9 22 16 28
16 6 0 19 21 29 47 10 26 40 76 66 110 27 34 48 66 48 70 1 11 32 48 51 59 9
5 47 45 85 89 37 44 73 79 80 77 6 -1 14 5 18 13 4 12 14 15 43 10 21 -4 47
-10 58 -14 20 -9 221 -49 285 -57 19 -3 37 -9 40 -14 4 -6 17 -10 31 -9 13 0
53 -4 87 -10 81 -15 400 -8 432 9 12 6 32 9 45 6 13 -3 25 -1 27 5 4 12 110
49 140 49 9 0 38 11 64 25 26 14 52 25 58 25 6 0 25 7 41 16 17 9 57 30 90 46
33 16 67 34 75 39 8 5 31 17 50 27 19 9 50 31 67 47 18 17 55 50 83 75 55 50
78 91 105 193 l18 68 -26 53 c-42 85 -131 148 -242 171 -115 24 -391 40 -401
24z m266 -104 c121 -9 186 -33 252 -96 39 -36 40 -41 34 -81 -4 -23 -15 -61
-26 -84 -18 -43 -95 -134 -111 -134 -13 0 -89 -49 -122 -79 -23 -21 -37 -25
-82 -25 -52 1 -59 5 -109 50 -30 27 -54 53 -55 58 -1 4 -14 24 -31 43 -16 18
-30 43 -30 54 0 11 -8 31 -17 45 -23 35 -32 224 -12 241 25 21 94 22 309 8z
m-412 -39 c2 -10 -4 -23 -13 -30 -14 -10 -15 -17 -6 -34 15 -29 14 -52 -4 -52
-23 0 -19 -41 5 -47 11 -3 20 -11 20 -18 0 -15 -80 -26 -94 -14 -18 16 -35 9
-51 -20 -12 -24 -24 -31 -59 -36 -37 -6 -45 -11 -51 -33 -4 -16 -2 -28 4 -30
19 -6 12 -30 -10 -37 -27 -9 -21 -37 13 -53 15 -7 30 -21 33 -32 4 -11 10 -20
14 -20 5 0 6 -11 4 -24 -7 -34 16 -44 39 -16 15 18 21 20 33 10 8 -7 15 -18
15 -25 0 -7 6 -15 13 -17 18 -7 37 2 37 18 0 8 8 14 18 14 10 0 27 7 38 15 10
8 25 15 33 15 8 0 22 7 32 16 16 14 18 14 24 -5 7 -24 52 -29 57 -7 2 10 18
-1 48 -30 41 -41 43 -45 19 -39 -19 5 -32 1 -45 -13 -26 -26 -58 -42 -86 -42
-13 0 -29 -5 -36 -12 -9 -9 -16 -7 -33 8 -21 19 -21 19 -43 -9 -28 -35 -46
-34 -46 2 0 32 -23 47 -40 26 -9 -10 -9 -19 0 -35 6 -12 10 -23 8 -25 -2 -2
-37 -6 -79 -9 -63 -5 -78 -3 -83 9 -7 19 -33 19 -52 0 -21 -21 -32 -19 -36 8
-4 31 -47 37 -55 7 -7 -28 -39 -22 -35 7 4 27 -12 37 -38 23 -15 -8 -19 -17
-15 -31 7 -22 -3 -24 -29 -4 -10 7 -15 19 -11 25 4 6 1 17 -5 25 -15 17 -50 3
-50 -20 0 -8 -2 -15 -4 -15 -2 0 -12 -3 -20 -6 -13 -5 -16 0 -14 27 3 31 0 34
-26 37 -26 3 -28 1 -24 -23 5 -22 2 -26 -16 -23 -17 2 -20 9 -18 36 3 22 -1
34 -12 38 -22 9 -46 -14 -46 -42 0 -25 -7 -29 -28 -15 -8 5 -11 17 -7 33 9 34
-16 55 -39 33 -9 -9 -16 -23 -16 -31 0 -15 -9 -17 -34 -8 -13 5 -13 10 -4 27
16 32 49 52 83 52 28 0 30 2 27 34 -2 26 5 42 35 75 23 25 48 43 68 46 22 4
31 11 33 29 5 34 42 62 65 50 24 -14 37 -3 37 32 0 22 5 29 19 29 11 0 22 4
25 8 3 5 19 7 36 4 24 -3 30 -1 30 15 0 23 52 55 75 47 10 -4 22 1 31 15 16
23 46 29 43 9 -3 -28 2 -38 21 -38 14 0 20 7 20 24 0 13 -6 26 -12 29 -27 9 6
22 55 22 41 0 60 6 87 27 30 23 83 38 115 33 6 -1 12 -9 13 -19z m42 -302 c0
-8 -5 -14 -11 -14 -5 0 -16 -15 -24 -34 -21 -50 -81 -63 -126 -28 -28 23 -20
48 18 62 16 6 36 14 45 20 10 5 24 7 32 4 8 -3 23 -1 33 4 21 12 33 7 33 -14z
m75 -104 c3 -6 -1 -13 -10 -16 -19 -8 -30 0 -20 15 8 14 22 14 30 1z m-1543
-35 c16 -14 36 -25 44 -25 8 0 14 -4 14 -8 0 -11 8 -15 198 -97 39 -17 55 -35
32 -35 -5 0 -16 -13 -25 -29 -8 -16 -23 -32 -33 -35 -10 -4 -31 -24 -48 -45
-16 -22 -40 -47 -54 -56 -14 -10 -41 -44 -60 -76 -19 -33 -39 -58 -44 -56 -9
3 -20 37 -30 92 -2 11 -12 43 -24 72 -11 29 -17 54 -15 57 3 3 -2 22 -12 42
-18 38 -27 133 -18 192 7 40 32 43 75 7z"/>
<path d="M18770 8253 c-34 -24 -42 -58 -22 -92 18 -32 37 -41 89 -41 35 0 53
21 53 62 -1 54 -78 100 -120 71z"/>
<path d="M18327 8323 c-14 -14 -6 -42 14 -48 25 -8 39 8 32 36 -5 18 -33 26
-46 12z"/>
<path d="M18215 8250 c-11 -18 5 -50 26 -50 16 0 20 6 17 27 -3 28 -31 43 -43
23z"/>
<path d="M18303 8224 c-4 -11 1 -22 12 -30 28 -21 37 -17 33 13 -3 32 -35 44
-45 17z"/>
<path d="M18022 8198 c-18 -18 -15 -36 9 -49 22 -11 38 0 39 27 0 11 -20 34
-30 34 -3 0 -11 -5 -18 -12z"/>
<path d="M18123 8179 c-25 -9 -30 -28 -11 -47 15 -15 48 3 48 28 0 25 -10 30
-37 19z"/>
<path d="M18201 8156 c-15 -18 -3 -46 19 -46 20 0 36 33 25 50 -9 14 -31 12
-44 -4z"/>
<path d="M17905 8120 c-10 -17 20 -44 40 -36 9 3 15 14 13 23 -4 21 -43 30
-53 13z"/>
<path d="M18002 8108 c-7 -7 -12 -15 -12 -19 0 -13 31 -39 46 -39 20 0 19 56
-2 64 -20 8 -18 8 -32 -6z"/>
<path d="M18082 8064 c2 -15 8 -29 15 -31 18 -7 43 15 43 38 0 14 -7 19 -30
19 -26 0 -30 -3 -28 -26z"/>
<path d="M17807 8053 c-10 -9 -8 -41 2 -47 18 -11 41 6 41 30 0 17 -6 24 -18
24 -10 0 -22 -3 -25 -7z"/>
<path d="M17903 8043 c-18 -7 -16 -52 3 -60 8 -3 22 1 31 9 12 12 13 20 4 37
-12 21 -17 23 -38 14z"/>
<path d="M17986 8011 c-21 -24 -13 -41 19 -41 27 0 41 26 24 46 -15 19 -23 18
-43 -5z"/>
<path d="M18072 7998 c-18 -18 -15 -36 7 -48 15 -7 23 -6 35 6 20 20 20 40 0
48 -22 8 -28 8 -42 -6z"/>
<path d="M17695 7980 c-9 -15 4 -50 19 -50 22 0 36 22 25 42 -11 20 -34 24
-44 8z"/>
<path d="M17786 7954 c-11 -29 -6 -44 14 -44 20 0 43 36 33 53 -8 13 -41 7
-47 -9z"/>
<path d="M17876 7945 c-12 -13 -14 -21 -5 -36 16 -30 44 -20 44 15 0 35 -16
43 -39 21z"/>
<path d="M17961 7918 c-11 -28 -6 -38 19 -38 21 0 45 34 35 50 -11 18 -45 10
-54 -12z"/>
<path d="M18052 7893 c4 -33 41 -45 52 -17 8 21 -11 44 -36 44 -15 0 -19 -6
-16 -27z"/>
<path d="M17682 7888 c-18 -18 -15 -36 9 -43 25 -8 42 6 37 31 -4 23 -29 29
-46 12z"/>
<path d="M18144 7886 c-9 -24 4 -48 23 -44 12 2 18 12 18 28 0 29 -32 41 -41
16z"/>
<path d="M17772 7871 c-20 -12 -10 -46 12 -46 13 0 22 10 27 28 6 21 4 27 -9
27 -10 0 -23 -4 -30 -9z"/>
<path d="M17867 7858 c-21 -11 -22 -32 -1 -49 14 -11 18 -10 30 6 26 35 7 64
-29 43z"/>
<path d="M17952 7841 c-21 -13 -10 -46 16 -49 19 -3 22 1 22 27 0 31 -13 39
-38 22z"/>
<path d="M18420 7835 c-16 -20 -6 -45 19 -45 26 0 34 15 21 40 -13 24 -23 25
-40 5z"/>
<path d="M18032 7809 c4 -30 33 -48 50 -31 17 17 -1 46 -31 50 -18 3 -22 -1
-19 -19z"/>
<path d="M18500 7800 c0 -23 5 -30 19 -30 24 0 45 25 37 45 -3 8 -17 15 -31
15 -21 0 -25 -5 -25 -30z"/>
<path d="M18124 7796 c-7 -19 12 -46 33 -46 21 0 13 54 -10 58 -9 2 -20 -4
-23 -12z"/>
<path d="M18216 7773 c-4 -9 0 -23 8 -31 12 -13 18 -13 30 -2 20 16 20 36 0
44 -24 9 -31 7 -38 -11z"/>
<path d="M11304 6601 c13 -88 61 -135 132 -129 l35 3 -87 85 -86 85 6 -44z"/>
<path d="M17422 6044 l218 -219 142 3 142 3 -199 198 -200 199 -65 11 c-36 5
-108 13 -160 17 l-95 6 217 -218z"/>
<path d="M16990 6243 c-14 -2 -58 -11 -99 -20 l-73 -16 187 -187 187 -188 112
-4 c89 -4 119 -9 154 -27 23 -12 48 -19 53 -15 7 4 -86 103 -217 235 -239 239
-232 234 -304 222z"/>
<path d="M16593 6119 c-46 -22 -83 -43 -83 -48 0 -4 16 -22 35 -41 l35 -34 47
23 c30 14 74 25 121 28 l73 6 -52 53 c-31 32 -62 54 -74 53 -11 0 -57 -18
-102 -40z"/>
<path d="M17931 5986 l155 -156 80 0 79 1 -65 59 c-70 65 -186 145 -290 202
-127 70 -122 56 41 -106z"/>
<path d="M16318 5948 l-78 -62 27 -28 c25 -26 33 -28 102 -28 l76 0 24 45 24
46 -43 44 c-24 25 -47 45 -50 45 -3 -1 -40 -28 -82 -62z"/>
<path d="M16715 5846 c-69 -26 -107 -99 -90 -176 l7 -30 -194 0 c-210 0 -252
-7 -292 -47 -82 -82 -45 -216 70 -253 l48 -15 33 -150 c18 -82 36 -158 39
-167 4 -15 -1 -18 -38 -18 -94 0 -157 -33 -184 -97 -29 -67 -5 -149 55 -185
36 -23 39 -23 490 -27 249 -2 515 0 590 4 l136 7 37 38 c21 21 39 48 40 61 1
13 5 -204 8 -483 5 -492 6 -507 26 -535 35 -47 80 -65 155 -60 119 7 149 48
149 201 l0 94 30 -28 c41 -39 72 -42 352 -38 l238 3 37 38 c36 35 38 40 37
100 -1 54 -17 105 -117 376 -64 173 -117 321 -117 328 0 8 49 149 110 313 60
164 115 318 121 342 24 90 -16 165 -101 188 -29 8 -148 10 -389 8 -387 -4
-413 -9 -470 -74 -50 -56 -54 -85 -61 -409 -3 -165 -7 -290 -8 -278 -1 12 -15
38 -32 56 -32 37 -88 57 -160 57 -35 0 -40 3 -36 18 3 9 21 85 39 167 l33 150
47 15 c58 19 94 53 108 102 22 84 -24 166 -105 187 -25 6 -126 11 -228 11
l-183 0 0 63 c-1 70 -20 109 -67 133 -43 22 -117 27 -163 10z m252 -537 c-3
-11 -21 -88 -39 -170 l-33 -149 -117 0 -118 0 0 30 c0 16 -13 91 -30 167 -16
75 -30 138 -30 140 0 2 84 3 186 3 184 0 186 0 181 -21z m1133 14 c0 -5 -39
-109 -86 -233 -52 -138 -87 -246 -91 -280 -5 -51 1 -73 86 -306 50 -138 91
-253 91 -257 0 -4 -43 -7 -95 -7 -103 0 -148 -12 -184 -51 l-21 -23 0 582 0
582 150 0 c83 0 150 -3 150 -7z"/>
<path d="M15888 5391 l-16 -39 107 -106 c58 -58 110 -106 114 -106 4 0 7 8 7
18 0 9 -18 27 -40 40 -55 31 -117 112 -136 178 -8 30 -17 54 -18 54 -2 0 -10
-18 -18 -39z"/>
<path d="M15826 5229 c-11 -34 -46 -189 -46 -206 0 -10 29 -47 64 -82 l64 -63
12 52 c7 28 27 73 45 99 l33 48 -83 83 c-57 57 -86 79 -89 69z"/>
<path d="M18597 5143 c-3 -5 -22 -53 -41 -105 l-34 -95 74 -74 75 -74 -6 75
c-11 141 -28 242 -45 263 -10 12 -19 16 -23 10z"/>
<path d="M14625 4880 c-50 -23 -52 -44 -5 -48 32 -3 38 1 53 33 19 41 12 43
-48 15z"/>
<path d="M15459 4866 c27 -28 43 -36 70 -36 44 0 34 11 -44 45 l-60 27 34 -36z"/>
<path d="M12320 4872 c0 -4 161 -168 358 -365 l357 -357 150 0 150 0 -365 365
-366 365 -142 0 c-78 0 -142 -3 -142 -8z"/>
<path d="M14935 4859 c-17 -4 -44 -22 -59 -38 -25 -26 -30 -40 -34 -106 l-5
-75 -446 0 c-269 0 -460 -4 -482 -10 -72 -20 -119 -99 -105 -174 10 -53 57
-101 110 -115 30 -7 194 -11 485 -11 l441 0 0 -484 0 -485 -207 -3 c-173 -2
-213 -6 -239 -20 -68 -37 -92 -125 -55 -201 36 -75 60 -81 299 -85 l202 -3 0
-115 c0 -182 27 -219 162 -219 62 0 82 4 105 21 47 35 58 68 61 197 l4 117
179 0 c99 0 200 5 224 11 142 36 147 241 6 288 -21 7 -108 11 -222 11 l-189 0
0 484 0 484 223 4 c246 3 258 6 297 71 41 67 18 171 -47 214 -24 16 -55 18
-249 21 l-221 4 -5 62 c-3 34 -13 77 -22 95 -30 57 -126 85 -211 60z"/>
<path d="M12065 4839 c-49 -11 -98 -22 -109 -25 -15 -5 45 -70 310 -335 l329
-329 142 0 c79 0 143 3 143 8 0 15 -696 702 -710 701 -8 0 -55 -9 -105 -20z"/>
<path d="M13144 4501 l348 -348 67 -12 c184 -33 315 -164 345 -344 7 -39 16
-72 22 -74 5 -1 33 37 61 85 l53 87 -427 427 -428 428 -90 30 c-92 30 -252 70
-283 70 -10 0 133 -150 332 -349z"/>
<path d="M18472 4811 c-6 -18 7 -65 59 -205 37 -99 71 -180 75 -179 18 4 56
210 44 233 -5 8 -45 51 -89 94 -77 76 -81 79 -89 57z"/>
<path d="M10300 4645 c85 -85 158 -155 162 -155 5 0 8 44 8 98 0 74 -5 107
-19 139 -29 62 -58 73 -193 73 l-113 0 155 -155z"/>
<path d="M11765 4755 c-16 -8 -58 -26 -92 -41 -35 -15 -63 -30 -63 -33 0 -3
118 -124 263 -269 l262 -262 150 0 150 0 -310 310 c-170 171 -314 310 -320
309 -5 0 -23 -6 -40 -14z"/>
<path d="M16253 4649 c-16 -9 -40 -44 -59 -87 -1 -2 -15 10 -31 27 -55 54
-170 65 -227 20 -33 -26 -50 -89 -41 -155 8 -69 33 -99 91 -113 59 -15 113 -7
159 25 l35 23 0 -242 c0 -284 7 -324 69 -380 64 -58 97 -62 531 -62 344 0 392
2 452 19 82 22 120 59 143 140 22 76 18 649 -5 710 -29 77 -3 74 -580 80 -360
4 -521 2 -537 -5z m807 -444 l0 -195 -275 0 -275 0 0 195 0 195 275 0 275 0 0
-195z"/>
<path d="M16743 4203 c26 -2 67 -2 90 0 23 2 2 3 -48 3 -49 0 -68 -1 -42 -3z"/>
<path d="M11412 4579 c-45 -27 -82 -53 -82 -57 0 -4 123 -130 273 -280 l273
-273 38 46 c21 25 56 58 78 72 l39 27 -258 258 c-142 142 -263 258 -268 258
-6 0 -48 -23 -93 -51z"/>
<path d="M13545 4540 c33 -33 61 -60 62 -60 2 0 3 11 3 24 0 17 -14 33 -55 60
-30 20 -58 36 -62 36 -4 0 19 -27 52 -60z"/>
<path d="M11153 4389 c-40 -33 -73 -64 -73 -67 0 -4 143 -150 319 -326 l318
-318 53 92 52 93 -293 293 c-162 162 -296 294 -299 294 -3 0 -38 -28 -77 -61z"/>
<path d="M14545 4275 c-22 -8 -47 -23 -57 -35 -41 -50 -672 -1078 -680 -1108
-12 -44 -1 -105 25 -138 55 -71 202 -73 263 -3 36 41 665 1068 675 1102 29 99
-52 198 -161 197 -14 -1 -43 -7 -65 -15z"/>
<path d="M15325 4278 c-71 -25 -107 -96 -91 -181 8 -44 664 -1104 699 -1131
23 -17 43 -21 108 -21 78 0 79 0 116 38 37 36 38 40 38 105 l-1 67 -328 530
c-180 292 -340 542 -354 558 -41 43 -121 58 -187 35z"/>
<path d="M4234 4179 c-9 -106 -8 -123 12 -161 25 -48 61 -59 189 -56 l115 3
-154 154 -154 154 -8 -94z"/>
<path d="M10955 4193 c-22 -26 -50 -60 -63 -77 l-22 -30 167 -168 168 -168
145 0 145 0 -245 245 c-135 135 -247 245 -250 245 -3 -1 -23 -22 -45 -47z"/>
<path d="M15866 4148 c-22 -5 -42 -10 -44 -12 -7 -8 100 -174 134 -207 l34
-33 0 122 c0 67 -3 122 -7 122 -5 0 -24 4 -43 8 -19 5 -53 5 -74 0z"/>
<path d="M13950 4137 c0 -1 33 -36 74 -76 l74 -73 34 54 c19 29 40 64 47 76
l12 22 -121 0 c-66 0 -120 -1 -120 -3z"/>
<path d="M10767 3943 c-13 -21 -36 -60 -52 -86 l-28 -48 29 -30 28 -29 145 0
146 0 -115 115 c-63 63 -118 115 -122 115 -4 0 -18 -17 -31 -37z"/>
<path d="M12115 3931 c-16 -10 -37 -27 -46 -37 -16 -19 -349 -613 -395 -705
-29 -57 -32 -138 -6 -189 46 -93 227 -109 299 -27 15 18 105 171 198 340 l170
306 513 1 512 0 0 -185 0 -184 -514 -3 c-504 -3 -515 -3 -543 -24 -42 -31 -58
-71 -58 -141 0 -67 16 -98 69 -137 27 -20 40 -21 537 -24 l509 -3 0 -47 0 -47
-281 -250 -282 -250 -62 -6 c-112 -10 -175 -69 -175 -164 0 -66 29 -112 90
-142 39 -20 59 -23 170 -23 101 0 133 4 166 19 23 11 46 25 50 33 5 8 152 141
326 297 175 155 325 292 333 304 13 18 15 98 15 576 0 605 -1 611 -57 667 -64
64 -61 64 -822 64 -650 0 -688 -1 -716 -19z"/>
<path d="M8972 3791 l-43 -6 53 -51 c53 -51 54 -52 129 -57 123 -8 235 -81
289 -187 20 -38 24 -41 58 -38 31 3 37 7 40 28 2 21 -24 51 -146 173 l-149
147 -94 -2 c-52 0 -113 -4 -137 -7z"/>
<path d="M9468 3687 l82 -83 48 46 47 45 -30 13 c-31 14 -202 62 -220 62 -5 0
28 -37 73 -83z"/>
<path d="M8670 3728 c-52 -16 -97 -32 -99 -34 -3 -3 33 -43 79 -89 l85 -85 33
40 c19 22 54 52 79 67 l45 26 -53 53 c-29 30 -58 54 -64 54 -5 -1 -53 -15
-105 -32z"/>
<path d="M17974 3729 c-3 -6 14 -31 39 -57 l45 -45 66 52 c36 29 66 55 66 57
0 10 -209 3 -216 -7z"/>
<path d="M8410 3618 c-19 -12 -57 -35 -83 -51 l-48 -30 42 -43 43 -44 145 0
146 0 -95 95 c-52 52 -99 95 -105 95 -5 0 -26 -10 -45 -22z"/>
<path d="M17846 3573 c-28 -19 -69 -39 -93 -46 l-43 -11 22 -23 c12 -13 26
-23 33 -23 13 0 155 67 173 82 10 9 8 16 -9 35 -13 12 -25 23 -28 22 -3 -1
-28 -17 -55 -36z"/>
<path d="M17345 3554 c-27 -13 -59 -24 -70 -24 -15 0 1 -20 60 -80 76 -76 81
-80 115 -74 52 9 182 43 188 49 13 12 -81 93 -121 104 -23 7 -57 21 -75 32
-40 23 -35 23 -97 -7z"/>
<path d="M9765 3531 c-61 -38 -70 -56 -70 -146 0 -75 3 -86 25 -110 14 -15 39
-34 57 -41 42 -18 134 -18 177 0 32 13 35 19 46 83 17 93 -3 201 -40 220 -39
20 -159 16 -195 -6z"/>
<path d="M10280 3528 c-118 -60 -123 -216 -10 -282 33 -20 55 -21 373 -26
l338 -5 -658 -636 c-362 -350 -682 -662 -712 -693 l-53 -57 4 -79 c3 -70 6
-82 31 -108 46 -48 136 -65 218 -41 29 9 122 94 424 385 l386 373 31 -35 c61
-69 770 -699 806 -716 76 -35 182 -18 231 38 28 31 31 41 31 102 0 37 -3 77
-6 90 -6 21 -739 689 -810 737 l-34 23 354 343 c335 324 356 346 366 391 14
56 6 112 -21 157 -37 62 -30 61 -667 61 l-578 0 -44 -22z"/>
<path d="M16625 3485 c28 -13 61 -26 75 -30 l25 -7 -29 31 c-25 26 -37 31 -75
30 l-46 -1 50 -23z"/>
<path d="M16875 3450 c33 -33 66 -62 75 -65 37 -11 83 -16 190 -22 l115 -5
-75 76 -74 76 -145 0 -145 0 59 -60z"/>
<path d="M5634 3471 c-11 -5 -34 -25 -52 -45 -29 -34 -32 -43 -32 -104 0 -40
6 -79 15 -96 8 -15 12 -33 9 -38 -4 -6 2 -6 14 1 14 8 36 8 76 0 42 -9 71 -9
116 0 45 9 65 9 81 0 12 -6 19 -7 15 -1 -3 5 1 24 10 41 12 23 15 52 12 102
-3 64 -6 72 -41 107 -36 36 -39 37 -120 39 -45 2 -91 -1 -103 -6z"/>
<path d="M8965 3471 c-55 -24 -85 -85 -85 -169 l0 -57 -717 3 c-500 2 -726 -1
-744 -9 -15 -6 -40 -24 -55 -40 -27 -28 -29 -36 -29 -114 0 -75 2 -86 25 -110
14 -15 34 -32 45 -38 14 -9 164 -13 504 -17 l483 -5 -520 -562 c-287 -309
-526 -571 -531 -582 -6 -11 -11 -48 -11 -83 0 -112 52 -162 170 -163 36 0 79
6 96 13 20 9 251 250 630 658 330 355 611 660 626 677 l27 32 1 -642 0 -643
-68 0 c-126 0 -202 -62 -202 -165 0 -66 29 -111 90 -143 43 -22 53 -23 205
-19 177 4 225 17 276 73 55 60 54 42 57 827 l3 727 133 0 c153 0 195 12 226
63 28 45 28 159 0 205 -32 51 -70 62 -225 62 l-135 0 0 48 c0 68 -16 114 -51
148 -28 27 -36 29 -117 31 -48 2 -96 -1 -107 -6z"/>
<path d="M5293 3440 c-24 -10 -43 -22 -43 -25 0 -4 21 -28 47 -53 l47 -47 8
60 c4 33 10 66 13 73 6 18 -23 15 -72 -8z"/>
<path d="M5107 3306 c-20 -24 -46 -60 -58 -80 l-22 -37 162 -162 161 -162 0
150 0 150 -93 93 c-51 50 -97 92 -103 92 -7 0 -28 -20 -47 -44z"/>
<path d="M6921 3233 c-19 -10 -44 -31 -55 -46 -21 -28 -21 -40 -24 -591 l-2
-563 -478 -213 c-262 -117 -489 -221 -503 -231 -39 -27 -52 -68 -47 -148 3
-61 7 -74 33 -101 36 -38 93 -54 165 -47 76 7 1111 471 1152 516 16 18 29 47
33 73 3 24 5 318 3 653 -3 665 -1 645 -61 689 -40 29 -167 35 -216 9z"/>
<path d="M4984 3046 c-11 -29 3 -188 22 -241 14 -39 41 -74 128 -163 107 -110
148 -143 194 -157 22 -6 22 -6 22 107 l0 113 -180 180 c-144 144 -180 175
-186 161z"/>
<path d="M9888 3023 c-64 -4 -68 -5 -74 -31 -3 -15 -9 -36 -14 -48 -7 -18 12
-42 140 -169 l149 -149 68 65 c37 35 70 68 72 73 5 11 -250 267 -264 264 -5
-1 -40 -3 -77 -5z"/>
<path d="M10220 2935 c47 -47 89 -85 95 -85 6 0 35 24 64 54 l53 53 -16 32
-17 31 -132 0 -132 0 85 -85z"/>
<path d="M5639 2977 c-19 -12 -45 -44 -59 -72 l-25 -50 0 -392 0 -391 25 -27
c35 -38 80 -55 145 -55 65 0 110 17 145 55 l25 27 0 391 0 392 -25 50 c-33 66
-77 95 -145 95 -37 0 -62 -6 -86 -23z"/>
<path d="M14375 2810 c55 -55 101 -100 102 -100 2 0 3 33 3 74 l0 73 -56 7
c-30 3 -73 15 -94 26 -22 11 -43 20 -47 20 -4 0 37 -45 92 -100z"/>
<path d="M11379 2822 l-74 -71 274 -275 c151 -151 278 -273 283 -270 4 3 8 16
8 28 0 13 16 56 36 96 l37 72 -245 245 -246 245 -73 -70z"/>
<path d="M12120 2843 c0 -5 71 -79 158 -166 l157 -157 145 0 145 0 -99 99 -98
99 -107 4 c-122 5 -177 24 -253 89 -27 22 -48 36 -48 32z"/>
<path d="M6561 2802 c-40 -56 -81 -154 -71 -171 5 -9 40 -47 79 -86 l71 -69 0
150 0 150 -29 28 -29 27 -21 -29z"/>
<path d="M14180 2805 c-29 -22 -56 -32 -159 -62 -10 -2 58 -76 184 -203 110
-110 203 -200 206 -200 7 0 49 190 49 223 0 15 -39 61 -123 145 l-123 122 -34
-25z"/>
<path d="M9699 2804 c-16 -19 -105 -65 -142 -73 -26 -6 -21 -12 136 -169 l163
-163 75 70 74 71 -140 140 c-77 77 -143 140 -146 140 -4 0 -12 -7 -20 -16z"/>
<path d="M11971 2743 c-19 -8 -70 -18 -113 -21 l-78 -7 123 -123 124 -124 43
22 c27 14 70 24 117 27 l75 6 -119 119 c-65 65 -122 118 -128 117 -5 0 -25 -7
-44 -16z"/>
<path d="M7400 2670 l0 -55 113 -113 c62 -61 117 -111 122 -111 6 1 39 32 74
70 l64 69 -64 68 c-115 121 -112 119 -216 124 l-93 4 0 -56z"/>
<path d="M7785 2670 c27 -27 55 -50 61 -50 7 0 31 23 54 50 l42 50 -103 0
-103 0 49 -50z"/>
<path d="M12740 2655 l63 -64 69 61 c37 33 68 62 68 64 0 2 -59 4 -132 4
l-132 0 64 -65z"/>
<path d="M13905 2644 c-10 -45 -34 -95 -65 -134 l-29 -36 238 -238 c131 -131
241 -234 244 -230 12 22 77 186 77 197 0 7 -103 115 -229 241 -224 224 -230
229 -236 200z"/>
<path d="M9440 2520 l0 -145 93 -93 c51 -50 97 -92 102 -92 6 0 41 30 78 68
l67 67 -170 170 -170 170 0 -145z"/>
<path d="M11190 2635 c-24 -25 -24 -26 -4 -44 10 -10 154 -140 319 -288 165
-149 317 -288 337 -309 54 -57 70 -104 76 -220 l5 -102 402 -402 403 -403 123
23 122 23 -484 478 c-583 577 -485 480 -911 912 -194 196 -355 357 -358 357
-4 0 -17 -11 -30 -25z"/>
<path d="M6444 2486 c-4 -10 -5 -70 -2 -134 5 -124 16 -160 60 -198 40 -34 44
-35 92 -13 l46 20 0 77 0 77 -95 95 c-77 77 -95 91 -101 76z"/>
<path d="M7400 2302 c0 -84 4 -152 9 -152 10 0 141 138 141 149 0 4 -34 40
-75 81 l-75 74 0 -152z"/>
<path d="M13695 2373 c-16 -14 -50 -44 -74 -66 l-43 -40 268 -268 c148 -148
273 -269 279 -269 6 0 28 28 49 63 21 34 46 72 54 85 15 23 9 29 -234 273
-137 137 -253 249 -259 249 -5 0 -23 -12 -40 -27z"/>
<path d="M8637 2352 l-37 -38 40 -39 40 -39 0 77 c0 42 -1 77 -3 77 -2 0 -20
-17 -40 -38z"/>
<path d="M12145 2306 c-61 -27 -93 -98 -81 -180 16 -108 130 -163 256 -125 36
11 38 13 49 79 17 96 -1 213 -36 229 -33 15 -152 13 -188 -3z"/>
<path d="M8446 2148 l-66 -72 127 -128 c89 -89 135 -128 150 -128 23 0 23 2
23 126 l0 126 -72 74 c-39 41 -77 74 -84 74 -7 0 -42 -33 -78 -72z"/>
<path d="M9440 2100 l0 -105 52 53 53 52 -53 52 -52 53 0 -105z"/>
<path d="M13478 2183 c-1 -5 -34 -35 -71 -67 l-69 -59 293 -293 293 -293 51
56 c96 107 119 64 -200 383 -154 154 -283 280 -287 280 -3 0 -8 -3 -10 -7z"/>
<path d="M8236 1924 c-59 -64 -67 -77 -55 -88 16 -15 266 -31 286 -18 8 5 -16
36 -73 95 -48 48 -87 87 -87 86 -1 0 -33 -34 -71 -75z"/>
<path d="M10447 1922 l-57 -58 34 -33 c18 -18 36 -29 39 -24 3 6 22 61 52 161
8 24 -12 11 -68 -46z"/>
<path d="M13230 1959 c-14 -12 -47 -42 -74 -66 l-48 -46 288 -288 c159 -159
293 -289 299 -289 5 0 42 29 80 64 l70 65 -290 290 c-159 160 -292 291 -295
291 -3 -1 -16 -10 -30 -21z"/>
<path d="M11250 1466 c250 -251 466 -463 480 -470 60 -32 316 -106 364 -106
15 0 -45 66 -228 249 l-248 248 -88 5 c-134 8 -179 34 -391 225 -97 87 -214
191 -260 232 -46 41 121 -131 371 -383z"/>
<path d="M12317 1797 l-47 -12 414 -414 c372 -372 416 -413 439 -407 14 3 62
20 107 37 l82 32 -377 377 -377 377 -82 6 c-44 3 -88 7 -96 10 -8 3 -36 0 -63
-6z"/>
<path d="M12837 1790 l-127 -5 349 -349 c272 -272 353 -347 367 -342 9 4 51
27 92 53 l74 46 -304 304 c-166 166 -307 302 -313 301 -5 -1 -67 -5 -138 -8z"/>
<path d="M10240 1720 l-75 -69 70 -71 70 -70 54 91 54 91 -49 48 -49 49 -75
-69z"/>
<path d="M10807 1728 c5 -7 25 -33 44 -58 136 -178 276 -317 434 -430 43 -30
-17 35 -210 229 -246 247 -296 295 -268 259z"/>
<path d="M8185 1606 c-40 -18 -61 -43 -75 -93 -27 -91 19 -191 98 -213 49 -13
119 -11 162 4 32 12 36 17 49 76 11 52 11 76 1 137 -11 65 -16 76 -41 89 -35
18 -153 18 -194 0z"/>
<path d="M10025 1512 c-27 -26 -61 -56 -75 -65 l-25 -17 83 -83 83 -82 70 75
69 74 -72 73 c-40 40 -75 73 -78 73 -3 0 -27 -22 -55 -48z"/>
<path d="M11830 1511 c-25 -26 -57 -56 -73 -67 l-27 -19 285 -285 284 -284
148 -3 148 -3 -355 355 c-195 195 -357 355 -360 354 -3 0 -25 -22 -50 -48z"/>
<path d="M9435 1499 c-8 -12 381 -409 402 -409 14 0 163 99 163 108 0 4 -42
48 -92 99 l-93 91 -90 5 c-106 6 -175 29 -238 81 -31 25 -48 33 -52 25z"/>
<path d="M9386 1312 c-8 -16 -36 -52 -62 -81 l-47 -52 114 -115 c62 -63 119
-114 126 -114 15 0 192 66 201 75 6 6 -297 315 -310 315 -4 0 -14 -13 -22 -28z"/>
<path d="M9151 1119 c-13 -5 -68 -15 -123 -22 l-98 -12 99 -99 99 -99 119 12
c65 6 121 15 125 19 4 4 -38 53 -95 109 -92 91 -104 100 -126 92z"/>
<path d="M8516 1042 c43 -41 65 -52 155 -80 111 -34 258 -66 268 -57 3 3 -35
46 -84 95 l-90 90 -150 0 -150 -1 51 -47z"/>
</g>
</svg>
